<?xml version="1.0" encoding="utf-8"?>
<!-- Generator: Adobe Illustrator 16.0.4, SVG Export Plug-In . SVG Version: 6.00 Build 0)  -->
<!DOCTYPE svg PUBLIC "-//W3C//DTD SVG 1.1//EN" "http://www.w3.org/Graphics/SVG/1.1/DTD/svg11.dtd">
<svg version="1.1" id="レイヤー_1" xmlns="http://www.w3.org/2000/svg" xmlns:xlink="http://www.w3.org/1999/xlink" x="0px"
	 y="0px" width="172px" height="82px" viewBox="90 11.006 172 82" enable-background="new 90 11.006 172 82" xml:space="preserve">
<g>
	<g>
		<path d="M119.213,39.008c-0.391,0.442-0.355,0.754-0.38,1.329c-0.009,0.315-0.145,0.836-0.014,1.127
			c0.181,0.413-0.024,0.701,0.018,1.123c0.046,0.427,0.142,0.871-0.013,1.273c-0.115,0.299-0.074,0.817,0.071,1.09
			c0.251,0.479-0.452,0.203-0.575,0.203c-0.757,0-1.586-0.005-2.34,0.072c-0.358,0.033-0.718-0.072-1.07-0.018
			c-0.379,0.064-0.721-0.184-1.07-0.084c-0.287,0.078-0.782,0.24-1.072,0.142c-0.421-0.142-0.79,0.065-1.208-0.088
			c-0.308-0.108-0.783-0.05-1.073,0.063c-0.361,0.142-0.674-0.162-1.071-0.016c-0.316,0.113-0.734-0.07-1.076-0.029
			c-0.41,0.047-0.858,0.088-1.271,0.088c-0.699,0-1.645,0.285-1.645-0.625c0-0.364-0.018-0.726-0.018-1.087
			c0-0.401,0.142-0.91,0.054-1.29c-0.089-0.384,0.036-0.705,0.022-1.089c-0.021-0.364-0.093-0.727-0.082-1.091
			c0.013-0.369,0.116-0.723,0.105-1.092c-0.012-0.439-0.22-0.811-0.068-1.23c0.114-0.314-0.066-0.761-0.045-1.094
			c0.023-0.414,0.054-0.703,0.021-1.105c-0.054-0.613,1.932-0.115,2.182-0.115c0.366,0,0.719-0.187,1.068-0.187
			c0.217,0,0.319,0.179,0.536,0.179c0.191,0,0.345-0.102,0.539-0.102c0.358,0,0.722,0.049,1.078,0.049
			c0.191,0,0.374-0.209,0.542-0.027c0.184,0.197,0.12,0.561,0.07,0.8c-0.165,0.769-0.188,2.011,0.685,2.381
			c0.362,0.153,0.958,0.042,1.304-0.12c0.483-0.232,0.388-0.885,0.388-1.307c0-0.188-0.067-0.355-0.067-0.543
			c0-0.204,0.14-0.334,0.14-0.538c0-0.197-0.106-0.347-0.106-0.54c0-0.204,0.13-0.34,0.13-0.545c0-0.348-0.163-0.703-0.163-1.08
			c0-0.418,0.088-0.857,0.106-1.284c0.016-0.354-0.007-0.732,0.047-1.084c0.073-0.462-0.148-0.72-0.241-1.151
			c-0.21-0.983-1.867-0.914-2.174-0.021c-0.231,0.671-0.012,1.648-0.096,2.346c-0.043,0.373-0.649,0.186-0.897,0.275
			c-0.187,0.069-0.356,0.011-0.534-0.035c-0.277-0.072-0.474,0.092-0.737,0.092c-0.207,0-0.327-0.155-0.537-0.155
			c-0.187,0-0.346,0.083-0.534,0.083c-0.189,0-0.349-0.078-0.536-0.078c-0.205,0-0.332,0.142-0.537,0.142
			c-0.357,0-0.722-0.063-1.079-0.063c-0.68,0-0.486-0.035-0.486-0.583c0-1.535-0.142-3.073-0.142-4.628
			c0-0.356,0.238-0.775,0.139-1.106c-0.082-0.283-0.205-0.823-0.076-1.111c0.137-0.306,0.174-0.796,0.037-1.118
			c-0.218-0.527,0.616-0.368,0.869-0.352c0.416,0.027,0.689-0.166,1.082,0.039c0.317,0.166,0.711-0.127,1.081,0.006
			c0.346,0.122,0.699-0.15,1.079-0.068c0.419,0.092,0.86,0.051,1.282,0.051c0.713,0,1.44-0.016,2.16-0.016
			c0.36,0,0.722-0.039,1.087-0.039c0.417,0,0.858,0.205,1.281,0.09c0.742-0.199,1.469,0.113,2.188-0.106
			c0.736-0.22,0.204,1.595,0.309,1.919c0.227,0.709-0.159,1.342-0.026,2.075c0.171,0.946,0.576,2.133,1.778,1.64
			c0.991-0.405,0.686-1.441,0.796-2.296c0.054-0.425-0.244-0.629-0.029-1.046c0.142-0.275-0.03-0.918-0.03-1.24
			c0-0.357-0.095-0.703-0.095-1.044c0-0.339,0.157-0.685,0.157-1.05c0-0.352-0.051-0.704-0.051-1.054
			c0-0.376-0.821-0.287-1.059-0.292c-0.71-0.02-1.407-0.137-2.126-0.047c-0.734,0.094-1.555-0.217-2.266-0.004
			c-0.729,0.211-1.402-0.11-2.136-0.027c-0.778,0.09-1.558-0.027-2.326-0.027c-0.361,0-0.716,0.139-1.068,0.139
			c-0.361,0-0.715-0.107-1.064-0.107c-0.357,0-0.709,0.002-1.065,0.002c-0.18,0-0.354-0.027-0.531-0.027
			c-0.278,0-0.431,0.256-0.732,0.137c-0.396-0.157-0.666,0.036-1.07,0.026c-0.352-0.011-0.723-0.146-1.067-0.099
			c-0.759,0.108-1.528-0.125-2.28-0.037c-0.8,0.092-1.83-0.12-2.204,0.773c-0.144,0.338,0.047,0.991,0.172,1.324
			c0.192,0.535,1.082,0.389,1.491,0.439c0.358,0.048,0.712-0.021,1.069,0.016c0.216,0.024,0.807-0.217,0.924-0.096
			c0.153,0.15-0.063,0.684,0.002,0.932c0.097,0.365,0.029,0.899,0.029,1.279c0,0.354-0.144,0.713-0.144,1.08
			c0,0.207,0.152,0.334,0.152,0.541c0,0.215-0.185,0.322-0.185,0.539c0,0.361,0.027,0.725,0.027,1.086
			c0,0.404,0.243,0.881,0.106,1.283c-0.246,0.705,0.047,1.463-0.046,2.168c-0.042,0.32,0.197,0.811,0.046,1.084
			c-0.258,0.463,0.151,0.742-0.048,1.225c-0.118,0.283,0.036,0.789,0.069,1.086c0.042,0.352-0.004,0.727-0.002,1.083
			c0.009,0.78-0.158,1.585-0.158,2.37c0,0.218,0.186,0.322,0.186,0.54c0,0.222-0.189,0.322-0.189,0.544
			c0,0.361,0.029,0.723,0.029,1.09c0,0.382,0.158,0.74,0.158,1.084c0,0.359-0.246,0.986-0.108,1.295c0.088,0.197,0.347,1.004-0.12,1
			c-0.365-0.008-0.75-0.16-1.123-0.176c-0.724-0.037-2.041,0.029-2.362,0.784c-0.889,2.105,2.282,1.671,3.317,1.725
			c0.294,0.017,0.592,0.076,0.886,0.076c0.373,0,0.73-0.13,1.084-0.13c0.629,0,1.355,0.156,1.978,0
			c0.42-0.104,1.64-0.137,2.032,0.025c0.369,0.153,0.533-0.016,0.889-0.016c0.208,0,0.339,0.143,0.546,0.143
			c0.198,0,0.343-0.117,0.543-0.117c0.657,0,1.296,0.197,1.979,0.011c0.315-0.091,0.771-0.028,1.089,0.045
			c0.332,0.077,0.74-0.058,1.084-0.062c0.275-0.004,0.691-0.063,0.951,0.042c0.417,0.173,0.687-0.114,1.092-0.007
			c0.608,0.158,1.352,0.006,1.979,0.006c0.653,0,1.317,0.052,1.993-0.07c0.449-0.082,0.512-0.093,0.441-0.593
			c-0.047-0.353,0-0.778,0.127-1.104c0.221-0.586-0.36-1.443-0.083-2.077c0.154-0.354,0.02-0.548,0.02-0.903
			c0-0.191-0.076-0.361-0.076-0.553c0-0.215,0.166-0.34,0.166-0.559c0-0.711,0.093-1.607-0.074-2.295
			c-0.104-0.426-0.495-0.897-0.973-0.87C119.765,38.673,119.606,38.565,119.213,39.008
			C119.088,39.146,119.326,38.883,119.213,39.008"/>
		<path d="M146.885,21.624c-1.501,0-3.008,0-4.486-0.111c-0.621-0.051-1.569-0.112-2.175,0.064c-0.363,0.105-0.865,0.207-1.06,0.571
			c-0.277,0.509-0.431,1.2,0.063,1.634c0.208,0.188,0.938,0.194,1.216,0.194c0.381,0,0.77,0.065,1.159,0.065
			c0.054,0,1.113-0.193,0.585,0.215c-0.36,0.277-0.406,0.691-0.758,0.971c-0.293,0.23-0.312,0.622-0.633,0.85
			c-0.25,0.176-0.413,0.648-0.541,0.916c-0.152,0.323-0.42,0.57-0.586,0.889c-0.09,0.17-0.193,0.287-0.334,0.416
			c-0.239,0.216-0.117,0.461-0.269,0.697c-0.207,0.314-0.518,0.531-0.702,0.816c-0.105,0.166-0.081,0.348-0.19,0.518
			c-0.11,0.171-0.301,0.193-0.413,0.365c-0.449,0.695-0.679,1.385-1.195,2.014c-0.132,0.158-0.292,0.793-0.476,0.793
			c-0.161,0.002-0.321-0.632-0.492-0.78c-0.569-0.493-0.869-1.319-1.281-1.942c-0.197-0.297-0.425-0.572-0.626-0.873
			c-0.205-0.31-0.307-0.666-0.498-0.953c-0.455-0.687-0.941-1.227-1.354-1.921c-0.193-0.311-0.489-0.536-0.652-0.856
			c-0.143-0.275-0.289-0.741-0.541-0.936c-0.311-0.244-0.269-0.701-0.572-0.893c-0.109-0.067-0.313-0.107-0.202-0.283
			c0.139-0.223,0.387,0.096,0.568,0.096c0.377,0,0.765-0.173,1.169-0.173c0.568,0,0.876-0.128,1.312-0.47
			c0.441-0.338,0.19-0.934,0.058-1.348c-0.164-0.5-0.907-0.51-1.37-0.51c-0.708,0-1.439-0.082-2.146-0.082
			c-0.764,0-1.593,0.172-2.352-0.019c-0.37-0.091-0.763,0.208-1.08,0.057c-0.427-0.202-0.684,0.083-1.11-0.007
			c-0.466-0.102-0.808,0.113-1.055,0.523c-0.313,0.52-0.363,0.64-0.136,1.177c0.161,0.382,0.557,0.726,0.993,0.699
			c0.448-0.023,0.812,0.096,1.253,0.104c0.271,0.004,0.772-0.197,0.999-0.084c0.232,0.116,0.591,0.849,0.719,1.102
			c0.32,0.649,0.752,1.271,1.198,1.834c0.242,0.303,0.288,0.672,0.527,0.961c0.271,0.328,0.617,0.59,0.712,1.01
			c0.09,0.41,0.535,0.453,0.605,0.914c0.05,0.328,0.405,0.715,0.667,0.871c0.286,0.172,0.387,0.664,0.624,0.906
			c0.303,0.312,0.38,0.8,0.616,1.156c0.111,0.17,0.298,0.223,0.41,0.39c0.112,0.173,0.077,0.362,0.191,0.534
			c0.201,0.301,0.446,0.576,0.651,0.889c0.205,0.307,0.396,0.624,0.599,0.932c0.122,0.184,0.347,0.186,0.417,0.415
			c0.081,0.269-0.15,0.483-0.058,0.764c0.24,0.705-0.085,1.46-0.039,2.169c0.05,0.77-0.115,1.57-0.021,2.31
			c0.091,0.718,0.088,1.457,0.035,2.177c-0.022,0.379,0.082,0.715,0,1.095c-0.125,0.603,0.215,0.743-0.546,0.743
			c-0.729,0-1.48-0.089-2.205-0.089c-0.365,0-0.735,0.108-1.104,0.108c-0.207,0-0.355-0.117-0.56-0.117
			c-0.29,0-0.514,0.268-0.818,0.294c-1.007,0.085-0.935,1.94,0.016,2.067c0.395,0.051,0.739,0.195,1.144,0.229
			c0.192,0.02,0.353-0.004,0.537-0.049c0.297-0.072,0.462,0.127,0.738,0.127c0.376,0,0.731-0.158,1.077-0.158
			c0.359,0,0.717,0.072,1.076,0.072c0.793,0,1.568-0.09,2.35-0.105c0.372-0.008,0.721,0.064,1.08,0.139
			c0.434,0.09,0.672-0.196,1.08-0.143c0.327,0.043,0.757,0.207,1.079,0.135c0.448-0.104,0.81,0.143,1.225-0.076
			c0.338-0.173,0.764,0.135,1.161-0.016c0.36-0.135,0.877-0.293,1.051-0.688c0.195-0.455,0.079-1.07-0.307-1.41
			c-0.462-0.41-0.824-0.189-1.362-0.213c-0.753-0.033-1.439-0.184-2.205-0.09c-0.356,0.043-2.05,0.179-2.12-0.174
			c-0.124-0.628,0.406-1.664,0.149-2.207c-0.207-0.436,0.164-0.675,0.024-1.082c-0.135-0.396-0.062-0.814-0.09-1.229
			c-0.063-0.978,0.088-1.953,0.088-2.92c0-0.455-0.267-1.008-0.077-1.43c0.189-0.43,0.464-0.887,0.735-1.283
			c0.271-0.395,0.51-0.809,0.77-1.211c0.143-0.213,0.102-0.509,0.353-0.66c0.235-0.143,0.333-0.277,0.442-0.527
			c0.11-0.242,0.316-0.377,0.457-0.593c0.151-0.231,0.079-0.478,0.291-0.695c0.354-0.366,0.764-0.854,1.002-1.305
			c0.401-0.763,0.914-1.84,1.522-2.439c0.338-0.335,0.579-0.86,0.772-1.288c0.21-0.454,0.901-0.832,0.962-1.34
			c0.177-1.521,1.849-0.527,2.888-0.781c0.681-0.166,1.083-0.807,0.923-1.49C148.253,21.806,147.528,21.624,146.885,21.624
			C146.618,21.624,147.114,21.624,146.885,21.624"/>
		<path d="M171.296,38.93c-0.497,0.562-0.391,1.821-0.353,2.534c0.04,0.813,0.06,1.586,0.159,2.396
			c0.047,0.368,0.064,0.84,0.064,1.203c0,0.477-0.642,0.046-0.872,0.135c-0.358,0.139-0.702,0.027-1.072-0.048
			c-0.412-0.081-0.796,0.046-1.21-0.011c-0.687-0.09-1.511,0.338-2.139,0.057c-0.305-0.139-0.744,0.004-1.073-0.066
			c-0.209-0.049-0.349,0.008-0.533,0.088c-0.264,0.115-0.479-0.069-0.734-0.069c-0.709,0-1.43,0.029-2.145,0.029
			c-0.202,0-0.34,0.126-0.539,0.126c-0.21,0-0.329-0.157-0.537-0.157c-0.36,0-0.952,0.284-1.271,0.114
			c-0.273-0.142-0.758-0.213-1.059-0.076c-0.391,0.184-0.515,0.031-0.329-0.348c0.297-0.596-0.131-1.707-0.131-2.355
			c0-0.704,0.058-1.461,0.058-2.178c0-0.767-0.021-1.611,0.065-2.384c0.044-0.381-0.138-0.726-0.073-1.095
			c0.063-0.354,0.042-0.77-0.05-1.121c-0.157-0.617,0.38-0.271,0.633-0.271c0.417,0,0.849-0.229,1.27-0.134
			c0.355,0.08,0.744-0.105,1.073,0.012c0.369,0.132,0.716-0.053,1.073,0.064c0.3,0.1,0.757,0.17,1.075,0.087
			c0.195-0.054,0.981-0.373,0.993,0.026c0.013,0.32-0.205,0.701-0.205,1.059c0,0.428,0.055,0.779,0.159,1.191
			c0.228,0.896,1.781,1.529,2.172,0.388c0.113-0.333,0.336-0.845,0.269-1.196c-0.06-0.312-0.119-0.775-0.021-1.084
			c0.088-0.271,0.19-0.805,0.054-1.081c-0.203-0.397-0.019-0.784-0.041-1.218c-0.05-1.102,0.532-4.666-1.707-3.719
			c-0.872,0.365-0.848,1.344-0.831,2.141c0.005,0.232,0.226,0.822,0.076,0.985c-0.249,0.271-0.975-0.101-1.307-0.069
			c-0.664,0.057-1.52-0.126-2.144,0.032c-0.414,0.107-0.671-0.103-1.075-0.091c-0.415,0.008-0.863,0.293-1.267,0.211
			c-0.43-0.081-0.048-0.617-0.077-0.874c-0.038-0.368-0.052-0.738-0.081-1.104c-0.063-0.793,0.188-1.555,0.029-2.354
			c-0.071-0.366-0.136-0.741-0.083-1.11c0.061-0.406,0.228-0.723,0.031-1.104c-0.139-0.269,0.032-0.814,0.049-1.112
			c0.02-0.266-0.119-1.114,0.03-1.267c0.333-0.344,0.669,0.029,1.031,0.029c0.215,0,0.32-0.178,0.539-0.178
			c0.203,0,0.337,0.137,0.539,0.137c0.787,0,1.576-0.129,2.364-0.016c0.329,0.049,0.754,0.051,1.078-0.045
			c0.408-0.121,0.676,0.074,1.079,0.084c0.771,0.022,1.532-0.186,2.306-0.129c0.397,0.027,0.685,0.188,1.083,0.108
			c0.367-0.069,0.734-0.147,1.086-0.019c0.295,0.107,0.791,0.051,1.062-0.086c0.473-0.238,0.272,0.707,0.286,0.899
			c0.027,0.403-0.219,0.628-0.057,1.03c0.114,0.273,0,0.758-0.048,1.037c-0.07,0.372,0.125,0.658,0.003,1.038
			c-0.102,0.312,0.191,1.075,0.405,1.312c0.429,0.486,0.522,0.288,1.138,0.388c0.371,0.061,0.657-0.422,0.8-0.715
			c0.335-0.67,0.25-1.619,0.25-2.359c0-0.189-0.109-0.334-0.109-0.521c0-0.192,0.11-0.332,0.11-0.524
			c0-0.345-0.042-0.694-0.042-1.047c0-0.349,0.034-0.695,0.034-1.046c0-0.337,0.005-0.92-0.08-1.246
			c-0.103-0.414-0.022-0.629-0.508-0.672c-0.307-0.025-0.808,0.217-1.062,0.067c-0.402-0.233-0.66,0.05-1.063-0.067
			c-0.414-0.117-0.78,0.053-1.203,0.006c-0.707-0.077-1.43-0.079-2.129,0.094c-0.33,0.081-0.776,0.02-1.068-0.129
			c-0.325-0.17-0.903,0.097-1.264,0.097c-0.709,0-1.418-0.093-2.133-0.093c-0.191,0-0.336,0.111-0.534,0.111
			c-0.2,0-0.322-0.146-0.53-0.146c-0.444,0-0.764,0.259-1.261,0.083c-0.41-0.148-0.672,0.132-1.065,0.039
			c-0.341-0.078-0.72-0.089-1.069-0.068c-0.293,0.017-0.799,0.171-1.068,0.046c-0.401-0.189-0.775,0.008-1.206-0.035
			c-0.685-0.064-1.507,0.135-2.148-0.055c-0.34-0.102-0.901,0.102-1.198,0.277c-0.41,0.25-0.645,1.074-0.454,1.523
			c0.316,0.741,1.479,0.773,2.186,0.773c0.303,0.002,0.757,0.095,1.042-0.021c0.576-0.234,0.29,0.227,0.29,0.52
			c0,0.715,0.09,1.446,0.09,2.164c0,0.78-0.058,1.556-0.079,2.362c-0.008,0.352,0.139,0.742,0.065,1.084
			c-0.076,0.365,0.127,0.742,0.015,1.082c-0.134,0.407,0.101,0.688,0.029,1.081c-0.077,0.411-0.186,0.849,0.002,1.226
			c0.146,0.291-0.072,0.758-0.019,1.087c0.055,0.345,0.048,0.739-0.01,1.085c-0.057,0.355-0.091,0.742,0.023,1.084
			c0.133,0.393-0.075,0.885-0.075,1.283c0,1.515-0.036,3.029,0.051,4.545c0.021,0.374-0.162,0.728-0.098,1.089
			c0.06,0.356,0.188,0.736,0.181,1.099c-0.014,0.582-0.561,0.155-0.83,0.293c-0.366,0.186-0.807,0.146-1.211,0.104
			c-0.41-0.041-0.842-0.046-1.229,0.115c-0.254,0.107-0.545,0.797-0.545,1.057c0,0.877,1.185,1.359,1.915,1.271
			c0.669-0.078,1.584,0.241,2.169-0.071c0.504-0.267,1.63-0.058,2.18-0.009c1.371,0.119,2.811,0.05,4.211,0.022
			c0.374-0.007,0.719,0.067,1.088,0.091c0.382,0.023,0.712-0.088,1.093-0.101c0.327-0.011,0.769-0.085,1.088,0.013
			c0.383,0.12,0.7-0.023,1.086,0.016c0.675,0.072,1.306,0.027,1.977,0.027c0.197,0,0.352-0.102,0.546-0.102
			c0.216,0,0.332,0.174,0.547,0.174c0.216,0,0.331-0.174,0.548-0.174c0.21,0,0.332,0.161,0.545,0.161
			c0.739,0,1.453-0.148,2.188-0.148c0.268,0,0.946,0.29,0.946-0.257c0-0.209-0.138-0.344-0.138-0.553c0-0.195,0.1-0.353,0.1-0.551
			c0-0.655-0.1-1.344-0.111-2.015c-0.012-0.393,0.152-0.709,0.12-1.109c-0.032-0.37-0.039-0.739-0.05-1.108
			c-0.016-0.406-0.153-0.729,0.012-1.116c0.157-0.358,0.006-1.026-0.077-1.369c-0.095-0.384-0.471-0.915-0.907-0.888
			C172.207,38.659,171.525,38.671,171.296,38.93C171.175,39.069,171.408,38.804,171.296,38.93"/>
		<path d="M201.904,23.546c0.593-0.889-0.387-1.828-1.2-1.939c-0.812-0.109-1.625-0.033-2.427-0.033
			c-0.73,0-1.475,0.039-2.191,0.039c-0.363,0-0.729,0.053-1.098,0.053c-0.426,0-0.885-0.229-1.305-0.135
			c-0.764,0.17-1.731-0.22-2.283,0.607c-0.191,0.283-0.14,1.041,0.039,1.328c0.347,0.559,0.699,0.352,1.185,0.619
			c0.246,0.134,0.724,0.049,0.976-0.027c0.326-0.101,0.65,0.113,1.002,0.025c0.224-0.057,0.803-0.238,1.015-0.116
			c0.252,0.147-0.034,0.86-0.12,1.115c-0.225,0.669-0.562,1.304-0.793,1.981c-0.112,0.324-0.112,0.7-0.229,1.045
			c-0.129,0.379-0.426,0.791-0.469,1.176c-0.043,0.379-0.39,0.641-0.386,0.998c0.002,0.395-0.362,0.656-0.332,1.019
			c0.069,0.786-0.718,1.43-0.665,2.176c0.021,0.323-0.348,0.654-0.428,0.983c-0.088,0.367-0.077,0.7-0.213,1.057
			c-0.277,0.732-0.646,1.41-0.902,2.159c-0.064,0.192,0.029,0.36-0.038,0.552c-0.06,0.176-0.179,0.309-0.239,0.484
			c-0.117,0.347-0.158,0.706-0.271,1.037c-0.068,0.2-0.267,0.252-0.337,0.451c-0.059,0.17-0.075,0.35-0.135,0.52
			c-0.101,0.301-0.427,0.91-0.393,1.211c0.049,0.402-0.182,0.658-0.345,1.015c-0.156,0.334-0.175,0.69-0.317,1.028
			c-0.076,0.175-0.093,0.763-0.279,0.766c-0.252,0.008-0.306-0.718-0.379-0.931c-0.233-0.681-0.498-1.349-0.727-2.008
			c-0.117-0.335-0.241-0.669-0.357-1.003c-0.144-0.416-0.009-0.826-0.31-1.236c-0.202-0.268-0.345-0.664-0.377-1.003
			c-0.03-0.37-0.454-0.653-0.403-0.99c0.112-0.783-0.682-1.437-0.662-2.184c0.018-0.72-0.599-1.353-0.834-1.979
			c-0.281-0.747-0.344-1.508-0.604-2.267c-0.116-0.336-0.262-0.658-0.379-0.998c-0.067-0.188-0.225-0.28-0.288-0.467
			c-0.064-0.189,0.021-0.361-0.048-0.555c-0.116-0.335-0.24-0.668-0.357-1.011c-0.061-0.175-0.07-0.351-0.13-0.522
			c-0.091-0.26-0.329-0.348-0.39-0.644c-0.066-0.308-0.096-0.776-0.281-1.039c-0.188-0.269-0.385-0.659-0.43-0.991
			c-0.032-0.234-0.394-0.701-0.271-0.889c0.204-0.322,0.956,0.121,1.242,0.128c0.3,0.007,0.758-0.251,1.014-0.118
			c0.301,0.149,0.74,0.138,1.055-0.018c0.228-0.113,0.449,0.062,0.645-0.03c0.205-0.098,0.275-0.368,0.393-0.539
			c0.363-0.542,0.433-0.946-0.041-1.481c-0.429-0.486-1.686-0.429-2.314-0.429c-0.366,0-0.732-0.017-1.102-0.017
			c-0.346,0-0.986-0.062-1.303,0.046c-0.686,0.239-1.474-0.229-2.197-0.003c-0.386,0.12-0.754-0.109-1.107,0.02
			c-0.495,0.188-0.87-0.063-1.339-0.008c-0.71,0.084-1.612,1.6-0.832,2.127c0.444,0.297,0.782,0.246,1.267,0.246
			c0.417,0,0.831,0.137,1.241,0.18c0.226,0.023,0.735-0.211,0.881-0.107c0.157,0.112,0.169,0.837,0.251,1.072
			c0.071,0.203,0.27,0.253,0.342,0.451c0.065,0.194-0.031,0.365,0.036,0.557c0.062,0.18,0.195,0.301,0.257,0.479
			c0.088,0.241,0.021,0.497,0.188,0.718c0.489,0.654,0.264,1.396,0.666,2.047c0.376,0.6,0.633,1.456,0.856,2.125
			c0.24,0.717,0.321,1.359,0.762,2.021c0.178,0.268,0.217,0.748,0.232,1.061c0.021,0.398,0.326,0.817,0.461,1.191
			c0.117,0.342,0.217,0.689,0.338,1.024c0.121,0.354,0.383,0.638,0.494,0.969c0.12,0.337,0.131,0.714,0.252,1.06
			c0.101,0.294,0.176,1.025,0.385,1.215c0.257,0.236,0.414,0.633,0.467,0.984c0.042,0.336,0.381,0.688,0.345,1.02
			c-0.069,0.633,0.476,1.606,0.793,2.16c0.366,0.648,0.226,1.449,0.695,2.053c0.19,0.248,0.196,0.77,0.241,1.07
			c0.054,0.351,0.797,0.397,1.121,0.404c0.535,0.01,1.162-0.205,1.66-0.068c0.625,0.172,0.769-1.125,0.956-1.496
			c0.302-0.582,0.304-1.134,0.513-1.738c0.093-0.273,0.342-0.475,0.445-0.773c0.124-0.347,0.105-0.703,0.217-1.061
			c0.088-0.271,0.438-0.559,0.388-0.854c-0.06-0.354,0.088-0.533,0.198-0.854c0.211-0.611,0.574-1.201,0.635-1.848
			c0.029-0.279,0.252-0.613,0.381-0.857c0.178-0.332,0.205-0.674,0.322-1.027c0.205-0.623,0.397-1.242,0.611-1.854
			c0.209-0.604,0.396-1.112,0.672-1.688c0.135-0.285,0.129-0.561,0.229-0.849c0.122-0.354,0.132-0.725,0.246-1.052
			c0.145-0.412,0.342-1.402,0.648-1.695c0.451-0.432,0.435-1.277,0.633-1.854c0.194-0.571,0.404-1.14,0.666-1.693
			c0.146-0.308,0.072-0.578,0.174-0.873c0.121-0.35,0.354-0.649,0.473-0.984c0.096-0.283,0.008-0.646,0.459-0.634
			c0.398,0.015,0.658,0.212,1.051,0.065c0.334-0.129,0.604,0.171,0.939,0.004C201.087,23.825,201.614,23.983,201.904,23.546
			C202.043,23.341,201.771,23.749,201.904,23.546"/>
		<path d="M226.135,45.529c-0.328-0.288-0.945-0.497-1.371-0.352c-0.318,0.106-0.875,0.237-1.102-0.127
			c-0.188-0.306-0.13-0.733-0.281-1.062c-0.175-0.377-0.433-0.71-0.479-1.129c-0.082-0.771-0.629-1.288-0.807-2.018
			c-0.092-0.373-0.113-0.729-0.388-1.011c-0.282-0.29-0.202-0.885-0.339-1.244c-0.065-0.171-0.102-0.349-0.167-0.52
			c-0.079-0.208-0.302-0.226-0.384-0.435c-0.069-0.191,0.004-0.365-0.068-0.557c-0.062-0.176-0.191-0.305-0.258-0.482
			c-0.262-0.69-0.407-1.622-0.833-2.223c-0.175-0.246-0.415-0.702-0.388-1.018c0.033-0.427-0.228-0.645-0.397-1.015
			c-0.151-0.334-0.188-0.7-0.345-1.032c-0.18-0.371-0.408-0.727-0.463-1.137c-0.045-0.339-0.232-0.722-0.396-1.015
			c-0.203-0.362-0.041-0.693-0.306-1.048c-0.508-0.688-0.486-1.5-0.77-2.253c-0.264-0.698-0.664-1.292-0.927-1.983
			c-0.071-0.19,0.013-0.366-0.06-0.56c-0.078-0.198-0.269-0.256-0.346-0.458c-0.152-0.402-0.147-0.889-0.438-1.246
			c-0.183-0.229-0.808-0.05-1.03,0.026c-0.309,0.107-0.718-0.115-1.053-0.099c-0.77,0.035-1.544,0.082-2.312,0.082
			c-0.703,0-1.406-0.079-2.115-0.079c-0.352,0-0.707,0.144-1.065,0.144c-0.203,0-0.325-0.152-0.53-0.152
			c-0.248,0-0.572,0.127-0.801,0.225c-0.9,0.396-0.975,1.779,0.004,2.124c0.367,0.127,0.753,0.126,1.126,0.231
			c0.444,0.129,0.824-0.098,1.24-0.098c0.349,0,0.701-0.02,1.049-0.02c0.183,0,0.349,0.055,0.528,0.055
			c0.167,0,0.318-0.151,0.48-0.13c0.438,0.062-0.139,0.829-0.244,0.962c-0.108,0.137-0.17,0.326-0.27,0.473
			c-0.188,0.269,0.001,0.477-0.1,0.744c-0.072,0.2-0.271,0.246-0.347,0.443c-0.069,0.184-0.007,0.359-0.075,0.541
			c-0.121,0.333-0.357,0.624-0.484,0.963c-0.119,0.319-0.079,0.707-0.212,1.061c-0.11,0.305-0.621,0.875-0.569,1.145
			c0.098,0.506-0.357,0.566-0.355,1.015c0,0.278-0.062,0.832-0.287,1.037c-0.295,0.264-0.313,0.617-0.4,0.995
			c-0.098,0.414-0.376,0.701-0.466,1.119c-0.149,0.727-0.449,1.348-0.745,2.017c-0.305,0.688-0.448,1.513-0.716,2.233
			c-0.124,0.336-0.423,0.606-0.548,0.94c-0.125,0.337-0.123,0.718-0.25,1.057c-0.123,0.337-0.237,0.676-0.359,1.015
			c-0.146,0.391-0.482,0.734-0.545,1.158c-0.104,0.719-0.484,1.375-0.631,2.08c-0.146,0.724-1.896,0.043-2.374,0.479
			c-0.765,0.703-0.728,1.911,0.392,2.198c0.293,0.074,0.821,0.074,1.131,0.074c0.375,0,0.881-0.213,1.243-0.051
			c0.388,0.177,0.704-0.146,1.048,0.016c0.368,0.176,0.661,0.027,1.051,0.025c0.289,0,0.797,0.205,1.049,0.068
			c0.375-0.203,0.783-0.05,1.189,0.014c0.354,0.054,0.973-0.135,1.314-0.222c0.41-0.107,0.966-0.251,0.891-0.827
			c-0.068-0.508,0.115-0.996-0.484-1.262c-0.401-0.176-0.877-0.348-1.312-0.285c-0.703,0.104-1.311,0-2.027,0.003
			c-0.119,0.002-0.936,0.331-0.805-0.035c0.062-0.165,0.275-0.216,0.338-0.392c0.083-0.228,0.184-0.454,0.276-0.678
			c0.272-0.662,0.446-1.346,0.728-2.016c0.293-0.688,0.258-1.592,0.723-2.172c0.135-0.168,0.129-0.902,0.531-0.688
			c0.318,0.172,0.689,0.026,1.037,0.014c0.791-0.036,1.553,0.041,2.338,0.023c0.789-0.021,1.393-0.138,2.194,0.037
			c0.343,0.074,0.763,0.04,1.103-0.002c0.203-0.024,0.358-0.034,0.551-0.104c0.287-0.101,0.482,0.095,0.757,0.095
			c0.381,0,0.745-0.17,1.099-0.17c0.215,0,0.336,0.168,0.553,0.168c0.193,0,0.357-0.09,0.554-0.09c0.315,0,0.847-0.159,1.114,0.02
			c0.263,0.178,0.408,0.893,0.431,1.202c0.044,0.624,0.474,1.462,0.812,1.986c0.224,0.347,0.146,0.671,0.293,1.036
			c0.153,0.381,0.389,0.725,0.444,1.135c0.026,0.202,0.498,0.648,0.114,0.779c-0.331,0.115-0.688-0.209-1.026-0.166
			c-0.684,0.088-1.358,0.17-2.057,0.104c-1.045-0.097-1.563,1.077-1.155,1.937c0.375,0.789,1.583,0.361,2.229,0.525
			c0.312,0.078,0.734-0.057,1.047-0.094c0.354-0.041,0.679,0.151,1.047,0.154c0.713,0.004,1.377-0.112,2.091-0.129
			c0.786-0.012,1.597,0.234,2.399,0.029C226.527,47.423,226.848,46.163,226.135,45.529
			C225.993,45.404,226.264,45.644,226.135,45.529 M208.312,36.7c-0.117-0.169,0.265-0.627,0.346-0.803
			c0.171-0.357,0.085-0.69,0.328-1.025c0.215-0.3,0.174-0.691,0.393-1.002c0.258-0.361,0.209-0.838,0.354-1.232
			c0.125-0.336,0.41-0.609,0.533-0.947c0.125-0.336,0.08-0.733,0.202-1.07c0.125-0.344,0.375-0.633,0.496-0.964
			c0.158-0.425,0.124-0.793,0.401-1.217c0.15-0.226,0.457-0.712,0.402-1.001c-0.088-0.48,0.275-0.59,0.34-1.024
			c0.049-0.347,0.183-0.712,0.348-1.025c0.197-0.376,0.197-0.8,0.384-1.177c0.317-0.638,0.521,0.027,0.632,0.32
			c0.072,0.195-0.035,0.362,0.039,0.561c0.069,0.188,0.239,0.274,0.311,0.463c0.129,0.338,0.219,0.688,0.346,1.021
			c0.145,0.381,0.471,0.769,0.523,1.172c0.045,0.34,0.17,0.722,0.338,1.024c0.188,0.341,0.062,0.754,0.281,1.051
			c0.439,0.591,0.769,1.413,0.813,2.152c0.049,0.717,0.687,1.325,0.903,1.972c0.132,0.391,0.047,0.72,0.361,1.024
			c0.235,0.228,0.313,0.896,0.436,1.216c0.347,0.91-0.848,0.447-1.434,0.447c-0.785,0-1.564,0.059-2.347,0.084
			c-0.326,0.009-0.771-0.147-1.077-0.039c-0.312,0.114-0.744,0.124-1.076,0.036c-0.355-0.098-0.717-0.028-1.076,0.034
			c-0.443,0.074-0.778-0.164-1.221-0.037C209.348,36.78,208.465,36.913,208.312,36.7C208.159,36.481,208.469,36.922,208.312,36.7"/>
		<path d="M252.268,21.976c-0.471-0.419-0.644-0.393-1.289-0.42c-0.349-0.017-0.684,0.079-1.028,0.047
			c-0.743-0.065-1.488,0.191-2.205-0.025c-0.532-0.159-1.544-0.069-2.079,0.071c-0.829,0.216-1.62-0.399-2.379,0.298
			c-0.163,0.15-0.561,0.828-0.424,1.041c0.174,0.274,0.232,0.771,0.527,0.911c0.711,0.345,1.787,0.163,2.562,0.163
			c0.178,0,0.331-0.082,0.509-0.082c0.198,0,0.312,0.146,0.511,0.146c0.574,0,0.414-0.082,0.414,0.469
			c0,0.771,0.074,1.583,0.149,2.359c0.032,0.356-0.063,0.733,0,1.081c0.073,0.395-0.195,0.721-0.09,1.082
			c0.097,0.34,0.093,0.726,0.062,1.078c-0.036,0.438,0.14,0.833-0.075,1.226c-0.138,0.259,0.018,0.8,0.037,1.085
			c0.026,0.381-0.104,0.701,0.004,1.082c0.192,0.699-0.006,1.648-0.006,2.367c0,0.724,0.036,1.434,0.036,2.161
			c0,0.358-0.084,0.72-0.084,1.087c0,0.421,0.134,0.856,0.14,1.285c0.013,0.706-0.101,1.463-0.15,2.176
			c-0.014,0.189,0.221,0.938,0.1,0.975c-0.169,0.054-0.482-0.816-0.589-0.994c-0.36-0.613-0.716-1.235-1.082-1.857
			c-0.179-0.306-0.433-0.57-0.616-0.885c-0.111-0.187-0.013-0.367-0.121-0.555c-0.125-0.211-0.287-0.399-0.414-0.609
			c-0.188-0.303-0.299-0.662-0.514-0.943c-0.209-0.274-0.504-0.553-0.639-0.871c-0.297-0.691-0.942-1.262-1.149-1.986
			c-0.104-0.381-0.473-0.506-0.562-0.915c-0.075-0.329-0.431-0.604-0.583-0.908c-0.162-0.323-0.327-0.646-0.458-0.983
			c-0.148-0.388-0.535-0.68-0.749-1.039c-0.102-0.17-0.078-0.354-0.176-0.521c-0.104-0.176-0.286-0.221-0.39-0.394
			c-0.183-0.31-0.368-0.614-0.549-0.923c-0.183-0.309-0.267-0.676-0.448-0.989c-0.216-0.361-0.578-0.644-0.686-1.079
			c-0.062-0.27-0.239-0.811-0.501-0.959c-0.435-0.252-0.214-0.65-0.562-0.924c-0.589-0.464-0.803-1.338-1.229-1.951
			c-0.228-0.33-0.226-0.67-0.536-0.947c-0.256-0.227-0.193-0.867-0.637-0.867c-0.773,0-1.531,0.043-2.315,0.088
			c-0.575,0.029-1.595,0.234-2.131-0.01c-0.719-0.331-1.944,0.413-1.944,1.211c0,0.252,0.438,0.866,0.627,1.004
			c0.371,0.265,0.901,0.316,1.316,0.164c0.283-0.104,0.785,0.071,1.07,0.14c0.146,0.032,1.103-0.38,0.796,0.14
			c-0.308,0.527-0.031,1.52-0.108,2.143c-0.037,0.34-0.023,0.75,0.075,1.082c0.129,0.455-0.161,0.769-0.015,1.221
			c0.248,0.75-0.189,1.477-0.043,2.168c0.166,0.769-0.043,1.594-0.043,2.369c0,0.203,0.141,0.336,0.141,0.539
			c0,0.198-0.117,0.347-0.117,0.544c0,0.354,0.141,0.716,0.141,1.086c0,0.794-0.225,1.552-0.076,2.37
			c0.133,0.713-0.022,1.443,0.022,2.166c0.046,0.663,0.191,1.711-0.054,2.314c-0.13,0.316-0.104,0.791,0.036,1.086
			c0.134,0.288-0.093,0.768-0.069,1.095c0.02,0.237,0.314,0.792-0.074,0.862c-0.414,0.077-0.863-0.307-1.299-0.131
			c-0.31,0.127-0.958,0.119-1.122,0.416c-0.172,0.307-0.269,0.993-0.127,1.32c0.236,0.541,0.317,0.461,0.865,0.597
			c0.446,0.108,0.924,0.065,1.365,0.179c0.38,0.098,0.81-0.257,1.116-0.082c0.408,0.235,0.684,0.012,1.119,0.03
			c0.371,0.017,0.75-0.022,1.115,0.011c0.451,0.041,0.844-0.146,1.27,0.028c0.298,0.118,0.816-0.005,1.125-0.05
			c0.461-0.062,0.822,0.131,1.231-0.18c0.357-0.268,0.587-0.826,0.472-1.268c-0.164-0.623-0.479-0.805-1.071-0.934
			c-0.617-0.136-1.505-0.211-2.134-0.111c-0.332,0.054-0.709,0.003-1.03,0.102c-0.511,0.152-0.353-0.655-0.394-0.919
			c-0.113-0.655-0.037-1.488,0.01-2.153c0.023-0.372,0.139-0.703,0.162-1.08c0.011-0.213-0.022-0.35-0.105-0.539
			c-0.129-0.289,0.109-0.467,0.109-0.742c0-0.364-0.16-0.724-0.16-1.075c0-0.354,0.1-0.71,0.1-1.08c0-0.198-0.104-0.345-0.104-0.542
			c0-0.213,0.172-0.327,0.172-0.537c0-0.224-0.189-0.321-0.189-0.543c0-0.283,0.232-0.423,0.176-0.74
			c-0.138-0.727-0.041-1.43-0.082-2.162c-0.045-0.735,0.264-1.626-0.062-2.299c-0.171-0.356,0.188-0.677,0.017-1.084
			c-0.125-0.293,0.099-0.756,0.08-1.082c-0.015-0.361-0.043-0.726-0.102-1.084c-0.062-0.385,0.128-0.869,0.128-1.293
			c0-0.154-0.19-0.316-0.165-0.459c0.03-0.156,0.249-0.098,0.271,0.037c0.045,0.312,0.211,0.76,0.459,0.979
			c0.306,0.268,0.317,0.598,0.506,0.943c0.195,0.354,0.4,0.7,0.607,1.051c0.35,0.586,0.7,1.32,1.215,1.775
			c0.234,0.206,0.321,0.701,0.438,0.986c0.147,0.363,0.487,0.717,0.694,1.066c0.187,0.311,0.398,0.6,0.58,0.906
			c0.101,0.168,0.078,0.351,0.179,0.518c0.104,0.18,0.294,0.213,0.399,0.389c0.394,0.672,0.688,1.423,1.155,2.045
			c0.239,0.316,0.207,0.697,0.449,0.988c0.231,0.277,0.419,0.584,0.621,0.881c0.2,0.293,0.364,0.615,0.583,0.902
			c0.269,0.352,0.253,0.742,0.521,1.096c0.404,0.527,1,1.164,1.151,1.82c0.079,0.346,0.276,0.725,0.558,0.924
			c0.303,0.215,0.383,0.832,0.573,1.149c0.369,0.634,0.812,1.183,1.185,1.811c0.438,0.739,0.486,1.519,1.459,1.646
			c0.373,0.049,2.101,0.128,2.207-0.214c0.1-0.322-0.004-0.723,0.045-1.062c0.056-0.4,0.111-0.881,0.111-1.282
			c0-0.697-0.08-1.447-0.08-2.16c0-0.188,0.079-0.352,0.079-0.54c0-0.212-0.163-0.327-0.163-0.541c0-0.208,0.163-0.325,0.163-0.537
			c0-0.275-0.204-0.444-0.127-0.741c0.095-0.356,0.07-0.718,0.107-1.082c0.032-0.351-0.203-0.77-0.087-1.084
			c0.246-0.662,0.05-1.6,0.037-2.304c-0.028-1.505-0.002-3.025-0.002-4.536c0-0.363-0.024-0.723-0.024-1.08
			c0-0.369-0.052-0.729-0.052-1.086c0-0.361,0.117-0.722,0.117-1.082c0-0.42-0.067-0.881-0.022-1.291
			c0.024-0.229,0.033-0.455,0.074-0.682c0.063-0.346-0.288-0.625-0.125-0.948c0.141-0.282-0.236-1.786,0.3-1.505
			C251.439,24.643,253.755,23.294,252.268,21.976C252.129,21.852,252.398,22.089,252.268,21.976"/>
		<path d="M152.655,55.3c-0.722,0-1.436,0.142-2.155,0.142c-0.354,0-0.708-0.074-1.079-0.074c-0.194,0-0.345-0.102-0.54-0.102
			c-0.262,0-0.46,0.141-0.74,0.112c-0.337-0.039-0.744-0.069-1.08-0.006c-0.364,0.073-0.722-0.062-1.079,0.017
			c-0.417,0.09-0.676-0.123-1.081-0.121c-0.422,0.004-0.803,0.113-1.22,0.154c-0.729,0.067-1.453-0.393-2.158-0.025
			c-0.291,0.147-0.809,0.08-1.083-0.047c-0.196-0.089-0.362-0.011-0.541,0.062c-0.25,0.102-0.495-0.038-0.743-0.038
			c-0.726,0-1.435,0.08-2.169,0.08c-0.829,0-1.619-0.175-1.439,0.987c0.059,0.377-0.151,0.759-0.047,1.111
			c0.094,0.33,0.166,0.771,0.114,1.111c-0.124,0.785-0.152,1.58-0.112,2.369c0.018,0.387,0.123,0.734,0.142,1.121
			c0.022,0.479-0.159,0.893-0.033,1.39c0.286,1.12,1.817,1.118,2.319,0.192c0.358-0.656-0.256-1.598,0.154-2.295
			c0.288-0.486-0.008-1.885-0.008-2.459c0-0.193,0.069-0.371,0.069-0.566c0-0.221-0.178-0.34-0.099-0.564
			c0.091-0.268,0.852-0.045,1.072-0.045c0.529,0,0.907,0.18,1.438-0.024c0.224-0.084,0.348,0.016,0.544,0.106
			c0.268,0.137,0.7-0.072,0.993-0.089c0.532-0.028,1.099,0.036,1.627,0.118c0.283,0.045,0.389,0.002,0.636-0.109
			c0.264-0.117,0.465,0.076,0.73,0.076c0.262,0,0.454-0.193,0.726-0.086c0.249,0.1,0.354,0.148,0.634,0.061
			c0.656-0.217,1.251,0.045,1.896,0.045c0.223,0,1.932-0.34,1.367,0.476c-0.608,0.879-0.62,2.205-0.867,3.203
			c-0.127,0.524-0.455,0.987-0.55,1.51c-0.097,0.543-0.059,1.066-0.359,1.562c-0.222,0.363-0.122,0.904-0.239,1.322
			c-0.053,0.191-0.262,0.278-0.318,0.469c-0.092,0.341-0.176,0.685-0.271,1.029c-0.146,0.521-0.257,1.039-0.4,1.553
			c-0.131,0.459-0.14,0.98-0.396,1.375c-0.269,0.414-0.091,1.041-0.305,1.496c-0.244,0.525-0.508,1.22-0.664,1.771
			c-0.065,0.236-0.074,0.566-0.097,0.812c-0.024,0.309-0.198,0.475-0.277,0.757c-0.146,0.521-0.295,1.03-0.441,1.55
			c-0.144,0.512-0.262,1.038-0.405,1.553c-0.069,0.24-0.277,0.418-0.224,0.686c0.071,0.367-0.036,0.529-0.134,0.882
			c-0.112,0.403-0.564,0.844-0.457,1.289c0.096,0.407-0.42,0.768-0.155,1.166c0.232,0.348,0.073,0.741,0.587,0.778
			c0.569,0.037,1.036,0.295,1.477-0.281c0.488-0.631,0.632-1.262,0.762-2.049c0.059-0.358,0.231-0.674,0.28-1.033
			c0.026-0.213,0.103-0.334,0.229-0.494c0.192-0.241,0.015-0.477,0.09-0.737c0.193-0.696,0.452-1.342,0.649-2.049
			c0.095-0.351,0.224-0.688,0.319-1.033c0.11-0.405,0.034-0.864,0.244-1.252c0.762-1.401,0.765-3.188,1.306-4.67
			c0.139-0.383,0.229-0.778,0.368-1.162c0.156-0.425,0.136-0.848,0.252-1.259c0.197-0.716,0.419-1.741,0.796-2.374
			c0.211-0.358-0.021-0.685,0.276-1.039c0.244-0.299,0.172-0.888,0.277-1.25c0.106-0.392,0.341-0.787,0.467-1.196
			c0.13-0.445-0.068-0.841,0.257-1.195c0.158-0.172,0.104-0.353,0.062-0.545c-0.063-0.285,0.189-0.451,0.259-0.697
			c0.093-0.332,0.403-0.904,0.359-1.231C152.418,57.242,153.338,55.3,152.655,55.3C152.388,55.3,152.831,55.3,152.655,55.3"/>
		<path d="M170.915,75.598c-0.497,0.53-0.19,1.711-0.19,2.364c0,0.365-0.144,0.74-0.144,1.142c0,0.432,0.162,0.914,0.183,1.367
			c0.018,0.53-0.138,0.432-0.479,0.303c-0.454-0.176-0.852,0.125-1.278,0.125c-1.161,0-2.418-0.334-3.559-0.025
			c-0.553,0.146-1.107-0.217-1.654-0.059c-0.321,0.1-0.509-0.047-0.821-0.047c-0.253,0-0.58,0.092-0.827,0.135
			c-0.295,0.051-0.392,0.002-0.643-0.133c-0.234-0.129-0.482,0.012-0.729,0.012c-0.276,0-0.969,0.391-1.189,0.082
			c-0.316-0.438,1.434-1.84,1.726-2.129c0.389-0.387,0.74-0.781,1.104-1.191c0.336-0.367,0.446-0.982,0.938-1.213
			c0.841-0.391,1.451-1.591,2.062-2.271c0.371-0.408,0.815-0.729,1.185-1.143c0.136-0.148,0.084-0.387,0.219-0.539
			c0.239-0.268,0.572-0.457,0.814-0.727c0.363-0.402,0.767-0.771,1.13-1.178c0.131-0.146,0.1-0.369,0.234-0.521
			c0.132-0.152,0.375-0.117,0.512-0.272c0.298-0.33,0.732-0.74,0.884-1.16c0.176-0.49,0.783-0.705,1.088-1.095
			c0.279-0.352,0.298-0.731,0.615-1.059c0.229-0.232,0.733-0.964,0.682-1.296c-0.071-0.467,0.133-0.856,0.198-1.317
			c0.022-0.18,0.209-0.293,0.22-0.478c-0.034-0.17-0.078-0.338-0.124-0.504c0.023-0.18,0.043-0.354,0.054-0.532
			c-0.037-0.52-0.212-1.044-0.362-1.539c-0.073-0.244,0.088-0.494-0.143-0.691c-0.201-0.178-0.279-0.243-0.357-0.516
			c-0.144-0.478-0.72-0.767-0.808-1.246c-0.065-0.377-0.621-1.099-1.004-1.222c-0.4-0.127-0.45-0.547-0.809-0.649
			c-0.493-0.14-0.729-0.539-1.16-0.762c-0.226-0.114-0.469-0.025-0.669-0.21c-0.181-0.165-0.278-0.237-0.533-0.284
			c-0.608-0.112-1.172-0.283-1.784-0.353c-1.142-0.125-2.102-0.065-3.228,0.219c-1.009,0.253-2.453,0.654-3.168,1.464
			c-0.337,0.382-0.82,0.55-1.174,0.907c-0.386,0.388-0.769,0.826-1.067,1.289c-0.469,0.734-1.281,2.377-1.108,3.268
			c0.205,1.064,1.466,1.302,2.162,0.518c0.314-0.358,0.38-1.074,0.526-1.523c0.192-0.574,0.487-1.18,1.047-1.457
			c0.218-0.109,0.253-0.271,0.344-0.477c0.11-0.25,0.391-0.33,0.594-0.48c0.433-0.319,0.878-0.688,1.376-0.893
			c0.492-0.205,0.873-0.068,1.352-0.199c0.579-0.156,1.102-0.42,1.686-0.156c0.25,0.115,0.463-0.047,0.715-0.006
			c0.19,0.031,0.305,0.208,0.49,0.252c0.48,0.119,1.095,0.189,1.532,0.434c0.753,0.42,2,1.229,2.205,2.123
			c0.104,0.467,0.482,0.98,0.698,1.41c0.245,0.477,0.21,1.135,0.224,1.659c0.011,0.569-0.422,1.017-0.538,1.56
			c-0.119,0.574-0.497,1.18-0.988,1.5c-0.729,0.479-1.356,1.479-1.936,2.125c-0.65,0.721-1.087,1.869-1.983,2.33
			c-0.484,0.246-0.612,0.831-1.035,1.123c-0.226,0.154-0.276,0.27-0.373,0.506c-0.104,0.243-0.348,0.317-0.517,0.506
			c-0.337,0.371-0.74,0.599-0.958,1.068c-0.233,0.506-0.726,0.723-1.003,1.17c-0.22,0.354-0.655,0.658-0.944,0.975
			c-0.173,0.191-0.432,0.246-0.531,0.5c-0.092,0.244-0.147,0.354-0.354,0.533c-0.417,0.363-0.681,0.826-1.134,1.172
			c-0.441,0.338-0.838,0.838-1.084,1.332c-0.194,0.397-0.704,0.506-0.98,0.816c-0.289,0.318-0.494,0.791-0.767,1.141
			c-0.221,0.283-1.871,1.42-1.279,1.82c0.14,0.094,0.266-0.016,0.403-0.047c0.298-0.064,0.524,0.053,0.817,0.053
			c0.536,0,1.078-0.037,1.617-0.037c0.555,0,1.069-0.016,1.617-0.016c0.518,0,1.321,0.238,1.8,0.053
			c0.468-0.189,0.693,0.121,1.166,0.061c0.534-0.071,1.079,0.043,1.622-0.032c1.08-0.149,2.162,0.062,3.255-0.041
			c0.547-0.052,1.076,0.128,1.625-0.035c0.363-0.104,1.272-0.063,1.629,0.073c0.452,0.175,1.125-0.062,1.626-0.021
			c0.286,0.026,0.527-0.07,0.802-0.07c0.212,0,0.334,0.152,0.538,0.152c0.395,0,0.388-1.76,0.388-2.09
			c0-0.371,0.002-0.747,0.002-1.119c0-0.214-0.152-0.342-0.152-0.556c0-0.29,0.231-0.451,0.139-0.767
			c-0.231-0.818-0.014-1.545-0.025-2.371C173.147,75.368,171.695,74.749,170.915,75.598
			C170.781,75.736,171.029,75.473,170.915,75.598"/>
		<path d="M193.114,71.591c-0.181-0.28-0.45-0.534-0.669-0.789c-0.211-0.239-0.396-0.629-0.633-0.834
			c-0.519-0.465-1.153-0.825-1.783-1.174c0.345-0.217,0.699-0.301,1.037-0.56c0.356-0.271,0.459-0.567,0.746-0.852
			c0.293-0.281,0.6-0.363,0.859-0.73c0.204-0.278,0.28-0.702,0.439-1.01c0.207-0.397,0.307-0.856,0.556-1.231
			c0.233-0.359,0.067-0.765,0.269-1.152c0.437-0.829-0.356-1.854-0.326-2.653c0.02-0.404-0.299-0.652-0.397-1.03
			c-0.11-0.42-0.383-0.884-0.627-1.237c-0.479-0.689-1.231-1.467-1.896-1.975c-0.604-0.455-1.309-1.021-2.066-1.254
			c-0.438-0.133-0.857-0.267-1.311-0.349c-0.196-0.034-0.358,0.144-0.559,0.119c-0.199-0.022-0.312-0.235-0.516-0.246
			c-1.729-0.1-3.4,0.429-4.854,1.291c-0.721,0.433-1.609,1.022-2.107,1.703c-0.588,0.802-0.854,1.728-1.418,2.521
			c-0.229,0.319-0.187,0.897-0.244,1.275c-0.065,0.438-0.215,0.948-0.15,1.383c0.124,0.858,0.23,1.588,0.561,2.381
			c0.293,0.703,0.574,1.309,1.098,1.893c0.613,0.684,1.316,1.225,2.107,1.722c-0.321,0.177-0.584,0.577-0.933,0.665
			c-0.468,0.117-0.319,0.342-0.622,0.611c-0.273,0.242-0.592,0.326-0.854,0.629c-0.303,0.352-0.463,0.736-0.715,1.119
			c-0.909,1.369-1.256,2.986-1.055,4.637c0.057,0.438,0.192,0.898,0.311,1.326c0.109,0.4-0.078,0.533,0.283,0.854
			c0.566,0.498,0.461,1.519,1.069,1.883c0.298,0.177,0.618,0.666,0.882,0.918c0.285,0.277,0.51,0.414,0.812,0.646
			c0.085,0.098,0.147,0.208,0.187,0.336c0.113,0.234,0.391,0.248,0.592,0.367c0.465,0.277,0.91,0.498,1.418,0.684
			c0.391,0.142,0.854,0.316,1.278,0.256c0.479-0.069,0.841,0.23,1.284,0.254c0.367,0.019,0.957-0.038,1.307-0.144
			c0.426-0.132,0.864,0.065,1.315-0.038c0.16-0.07,0.321-0.152,0.478-0.238c0.278-0.082,0.508-0.008,0.787-0.139
			c0.407-0.182,0.744-0.455,1.125-0.68c0.711-0.426,1.372-0.784,1.795-1.512c0.217-0.367,0.601-0.365,0.799-0.748
			c0.207-0.406,0.498-0.764,0.711-1.17c0.207-0.396,0.361-0.834,0.474-1.271c0.097-0.372,0.317-0.646,0.374-1.031
			c0.116-0.806,0.234-1.937-0.109-2.707c-0.189-0.424-0.137-0.904-0.299-1.318C193.723,72.458,193.419,72.066,193.114,71.591
			C193.021,71.443,193.214,71.741,193.114,71.591 M179.932,62.577c0-0.658-0.062-1.358,0.392-1.9
			c0.448-0.532,0.502-1.291,1.054-1.739c0.48-0.392,1.098-0.725,1.652-1.012c0.253-0.128,0.291-0.429,0.621-0.418
			c0.401,0.018,0.822-0.039,1.197-0.203c1.262-0.554,2.965,0.168,3.995,0.834c1.148,0.741,2.195,1.706,2.429,3.127
			c0.123,0.764,0.199,1.409,0.138,2.194c-0.026,0.331-0.194,0.697-0.41,0.955c-0.224,0.265-0.263,0.563-0.453,0.826
			c-0.412,0.56-1.123,1.059-1.713,1.413c-0.295,0.179-0.534,0.306-0.767,0.559c-0.217,0.23-0.717,0.075-1.017,0.146
			c-1.504,0.369-3.268,0.214-4.583-0.588C181.105,65.938,179.932,64.227,179.932,62.577
			C179.932,62.396,179.932,62.77,179.932,62.577 M190.145,79.77c-0.269,0.263-0.49,0.528-0.805,0.746
			c-0.352,0.239-0.658,0.248-1.018,0.409c-0.672,0.293-1.342,0.538-2.079,0.593c-0.312,0.022-0.752-0.129-1.083-0.15
			c-0.311-0.025-0.812,0.061-1.09-0.008c-0.297-0.07-0.678-0.381-0.969-0.51c-0.433-0.187-0.836-0.269-1.246-0.531
			c-0.268-0.168-0.564-0.424-0.724-0.707c-0.18-0.314-0.45-0.426-0.651-0.703c-0.168-0.236-0.355-0.764-0.479-1.039
			c-0.179-0.402-0.267-0.848-0.446-1.251c-0.168-0.374-0.05-0.563-0.05-0.953c0-0.529-0.026-0.858,0.122-1.39
			c0.26-0.939,0.785-1.656,1.374-2.418c0.199-0.252,0.515-0.474,0.819-0.59c0.326-0.127,0.455-0.359,0.744-0.513
			c0.67-0.362,1.584-0.491,2.332-0.59c0.261-0.033,0.557-0.246,0.8-0.246c0.29,0,0.752,0.217,1.067,0.267
			c0.836,0.121,1.825,0.344,2.545,0.828c1.424,0.938,2.347,2.395,2.52,4.12c0.072,0.714,0.249,1.806-0.209,2.427
			C191.079,78.305,190.84,79.096,190.145,79.77C190.014,79.898,190.282,79.636,190.145,79.77"/>
		<path d="M213.973,67.374c-0.363-0.377-0.437-0.832-1.017-0.976c-0.501-0.129-0.796-0.647-1.229-0.891
			c-0.271-0.146-0.506-0.102-0.785-0.201c-0.354-0.121-0.608-0.324-0.992-0.404c-0.196-0.043-0.363,0.117-0.559,0.091
			c-0.17-0.068-0.338-0.132-0.51-0.188c-0.182,0.012-0.357,0.03-0.535,0.049c-0.246-0.01-0.461-0.17-0.705-0.056
			c-0.295,0.142-0.4,0.146-0.709,0.054c-0.216-0.067-0.343,0.033-0.521,0.131c-0.267,0.149-0.455-0.067-0.724-0.02
			c-1.147,0.221-2.227,0.645-3.305,1.068c-0.113-0.309,0.258-0.522,0.075-0.92c-0.134-0.305,0.011-0.745-0.063-1.08
			c-0.078-0.381,0.205-0.676,0.151-1.088c-0.06-0.453-0.063-0.829-0.063-1.283c0-0.715-0.059-1.448-0.059-2.174
			c0-0.209,0.157-0.332,0.157-0.543c0-0.188-0.076-0.356-0.076-0.549c0-0.514,0.088-0.723,0.7-0.606
			c0.344,0.065,0.712,0.179,1.059,0.17c0.317-0.01,0.779-0.31,1.06-0.183c0.397,0.187,0.676-0.104,1.057,0.024
			c0.374,0.128,0.804,0.073,1.19-0.001c0.326-0.064,0.731,0.01,1.06,0.045c0.394,0.041,0.687-0.121,1.062,0.062
			c0.295,0.145,0.713-0.134,1.059-0.065c0.189,0.036,0.35-0.001,0.531-0.052c0.273-0.075,0.47,0.088,0.729,0.088
			c0.35,0,0.702-0.104,1.064-0.104c0.541,0,0.722,0.177,1.18-0.241c0.456-0.425,0.396-0.882,0.191-1.38
			c-0.239-0.577-0.357-0.533-0.949-0.738c-0.66-0.229-1.643,0.318-2.206-0.012c-0.304-0.176-0.724-0.147-1.06-0.026
			c-0.457,0.166-0.736-0.166-1.201-0.031c-0.624,0.188-1.471,0.062-2.114,0.009c-0.377-0.031-0.696,0.073-1.06-0.057
			c-0.431-0.154-0.849,0.102-1.258,0.102c-0.199,0-0.334-0.129-0.533-0.129c-0.194,0-0.338,0.115-0.53,0.115
			c-0.191,0-0.341-0.101-0.531-0.101c-0.221,0-0.312,0.196-0.528,0.196c-0.336,0-0.688-0.215-1.067-0.215
			c-0.384,0-0.892,0.045-1.257,0.174c-0.399,0.144-0.096,0.697-0.057,0.998c0.045,0.367-0.103,0.742-0.025,1.1
			c0.166,0.753-0.366,1.695-0.019,2.342c0.173,0.311-0.131,0.729-0.017,1.096c0.102,0.325,0.055,0.76,0.057,1.101
			c0,0.407-0.164,0.706-0.002,1.101c0.188,0.463-0.121,0.876-0.121,1.309c0,0.357,0.135,0.724,0.135,1.099
			c0,0.367-0.188,0.729-0.188,1.104c0,1.049,0.02,1.924,1.052,2.433c0.384,0.192,0.849-0.095,1.161-0.31
			c0.232-0.162,0.479-0.115,0.719-0.231c0.178-0.086,0.213-0.324,0.396-0.406c0.466-0.203,0.904-0.096,1.344-0.446
			c0.18-0.144,0.329-0.086,0.532-0.045c0.323,0.062,0.59-0.242,0.935-0.233c0.311,0.007,0.482-0.181,0.77-0.207
			c0.199-0.023,0.345,0.157,0.539,0.146c0.539-0.026,1.052-0.223,1.608-0.141c0.419,0.067,0.83,0.423,1.255,0.522
			c0.6,0.146,0.969,0.573,1.522,0.754c0.251,0.084,0.692,0.687,0.858,0.894c0.174,0.217,0.352,0.371,0.482,0.62
			c0.135,0.255,0.109,0.511,0.217,0.763c0.2,0.457,0.34,0.979,0.428,1.468c0.035,0.184,0.215,0.299,0.234,0.487
			c0.036,0.318-0.191,0.438-0.055,0.785c0.124,0.317-0.034,0.498-0.049,0.81c-0.01,0.203,0.169,0.364,0.147,0.569
			c-0.051,0.488-0.397,0.881-0.388,1.349c0.015,0.592-0.234,0.821-0.455,1.295c-0.214,0.459-0.469,1.074-0.784,1.467
			c-0.254,0.312-0.794,0.584-1.104,0.871c-0.404,0.375-0.869,0.584-1.291,0.912c-0.396,0.311-0.918,0.426-1.4,0.532
			c-0.518,0.113-1.464,0.298-1.958,0.091c-0.356-0.146-0.739,0.026-1.116,0.021c-0.27-0.004-0.396-0.06-0.619-0.188
			c-0.237-0.136-0.483-0.057-0.733-0.133c-0.183-0.059-0.298-0.24-0.476-0.31c-0.188-0.07-0.395,0.024-0.578-0.06
			c-0.393-0.176-0.639-0.578-1.099-0.688c-0.694-0.175-1.536-1.07-2.057-1.558c-0.474-0.451-0.793-0.594-1.376-0.36
			c-0.45,0.182-0.852,0.614-0.852,1.118c0,0.771,1.053,1.717,1.705,1.978c0.443,0.177,0.635,0.545,1,0.769
			c0.443,0.277,0.986,0.471,1.463,0.696c0.297,0.144,0.637,0.412,0.93,0.525c0.507,0.192,1.045,0.18,1.564,0.299
			c0.184,0.045,0.301,0.215,0.486,0.252c0.243,0.041,0.551,0.022,0.802,0.022c0.53,0.004,1.05,0.166,1.586,0.191
			c1.878,0.09,4.318-0.891,5.744-2.068c0.767-0.639,1.197-1.541,1.906-2.231c0.36-0.354,0.338-0.949,0.685-1.338
			c0.301-0.338,0.084-0.697,0.338-1.004c0.271-0.329,0.26-0.688,0.271-1.11c0.012-0.453,0.268-0.837,0.303-1.304
			c0.038-0.462-0.242-0.824-0.079-1.349c0.169-0.547-0.065-0.873-0.136-1.371c-0.053-0.387,0.02-0.697-0.084-1.108
			c-0.122-0.494-0.509-1.031-0.725-1.498c-0.08-0.183,0.014-0.394-0.082-0.571c-0.133-0.246-0.289-0.479-0.428-0.72
			C214.747,67.938,214.29,67.707,213.973,67.374C213.85,67.243,214.1,67.508,213.973,67.374"/>
		<path d="M260.943,91.866c-0.15,0.155-0.645-0.062-0.91,0.055c-0.299,0.125-0.815-0.094-1.141-0.108
			c-0.822-0.037-1.675,0.135-2.494,0.135c-0.379,0-0.758-0.072-1.141-0.072c-0.197,0-0.376,0.074-0.572,0.074
			c-0.213,0-0.358-0.145-0.571-0.145c-0.369,0-0.747,0.122-1.144,0.122c-0.453,0-0.891-0.085-1.354-0.038
			c-0.768,0.075-1.534-0.082-2.287-0.029c-0.389,0.025-0.762-0.037-1.146-0.032c-0.442,0.001-0.854,0.142-1.289,0.048
			c-0.75-0.156-1.529,0.047-2.289,0.053c-0.379,0.006-0.772-0.016-1.143-0.103c-0.221-0.054-0.375,0.005-0.572,0.087
			c-0.287,0.12-0.502-0.094-0.781-0.094c-0.217,0-0.354,0.146-0.572,0.146c-0.195,0-0.37-0.078-0.57-0.078
			c-0.385,0-0.765-0.053-1.143-0.053c-0.379,0-0.76,0.103-1.141,0.103c-0.455,0-0.906-0.119-1.352-0.09
			c-1.578,0.1-3.134-0.076-4.719,0.027c-1.604,0.104-3.178-0.068-4.774-0.068c-0.763,0-1.526,0.092-2.287,0.092
			c-0.819,0-1.675-0.14-2.495-0.039c-1.558,0.184-3.188-0.258-4.729,0.024c-0.354,0.063-0.789,0.029-1.143-0.036
			c-0.422-0.08-0.717,0.163-1.145,0c-0.324-0.123-0.84-0.06-1.143,0.069c-0.353,0.146-0.977,0.051-1.357,0.051
			c-0.771,0-1.505-0.114-2.282-0.114c-0.829,0-1.671,0.094-2.499,0.043c-0.738-0.043-1.543-0.076-2.281-0.053
			c-0.821,0.026-1.627-0.021-2.434,0.004c-0.791,0.028-1.496,0.006-2.273-0.033c-0.848-0.041-1.662,0.146-2.481,0.146h-2.272
			c-0.207,0-0.363-0.117-0.568-0.117c-0.208,0-0.361,0.118-0.57,0.118c-0.4,0-0.952,0.018-1.347-0.062
			c-0.708-0.139-1.556-0.039-2.275,0.015c-0.795,0.055-1.655-0.188-2.423,0.032c-0.371,0.107-0.746-0.106-1.139-0.018
			c-0.354,0.081-0.805,0.059-1.141-0.053c-0.326-0.105-0.805,0.025-1.142,0.037c-0.207,0.01-0.375-0.014-0.573-0.067
			c-0.307-0.087-0.49,0.122-0.779,0.122c-0.758,0-1.541-0.113-2.287-0.113c-0.764,0-1.768-0.205-2.502,0.01
			c-0.418,0.121-0.732-0.051-1.147-0.021c-0.383,0.021-0.765,0.125-1.146,0.108c-0.776-0.03-1.68-0.354-2.434-0.038
			c-0.674,0.28-1.596-0.205-2.286-0.05c-0.775,0.179-1.697,0.035-2.492,0.035c-0.762,0-1.522-0.088-2.284-0.088
			c-0.392,0-0.77,0.141-1.14,0.141c-0.473,0-0.891-0.098-1.354-0.117c-0.761-0.035-1.513,0.116-2.284,0.089
			c-0.779-0.024-1.663-0.153-2.434-0.021c-0.357,0.062-0.781-0.019-1.145-0.043c-0.405-0.029-0.733,0.125-1.144,0.031
			c-0.367-0.084-0.768,0.047-1.145,0.002c-0.484-0.054-0.894,0.021-1.362,0.021c-1.589,0-3.183-0.029-4.792-0.049
			c-0.382,0-0.764,0.09-1.143,0.057c-0.353-0.033-0.797-0.117-1.145-0.043c-0.774,0.168-1.641-0.082-2.434-0.044
			c-1.62,0.075-3.197,0.021-4.797,0.021c-0.383,0-0.768,0.054-1.148,0.054c-0.391,0-0.771-0.078-1.147-0.078
			c-0.388,0-0.766,0.103-1.146,0.103c-0.458,0-0.876-0.187-1.356-0.074c-1.55,0.358-3.169-0.24-4.733,0.045
			c-0.739,0.139-1.554-0.019-2.296-0.037c-0.392-0.014-0.753,0.097-1.146,0.088c-0.459-0.006-0.91-0.146-1.361-0.146
			c-0.771,0-1.547,0.162-2.295,0.162c-0.82,0-1.678-0.121-2.509-0.062c-0.759,0.054-1.545-0.213-2.291-0.073
			c-0.335,0.062-0.804,0.168-1.144,0.088c-0.448-0.106-0.848,0.082-1.291-0.063c-0.666-0.219-1.581,0.115-2.286,0.035
			c-0.378-0.043-0.77-0.062-1.146-0.029c-0.203,0.016-0.378,0.025-0.574,0.076c-0.305,0.08-0.498-0.111-0.788-0.111
			c-0.756,0-1.541,0.131-2.297,0.131c-0.21,0-0.36-0.128-0.57-0.128c-0.2,0-0.376,0.073-0.575,0.073
			c-0.459,0-0.893-0.055-1.361-0.023c-0.378,0.026-0.78-0.088-1.149-0.02c-0.338,0.058-0.811,0.166-1.152,0.087
			c-0.846-0.204-1.624,0.048-2.448,0.009c-1.607-0.07-3.205-0.068-4.823-0.068c-0.763,0-1.516,0.004-2.299,0.004
			c-0.387,0-0.771-0.069-1.153-0.069c-0.21,0-0.363,0.127-0.578,0.127c-0.268,0-0.507-0.142-0.789-0.142
			c-0.401,0-0.766,0.185-1.155,0.144c-0.337-0.039-0.826-0.187-1.157-0.089c-0.264,0.076-0.992,0.324-1.065-0.137
			c-0.057-0.363,0.078-0.988,0.176-1.338c0.103-0.371-0.156-0.744-0.103-1.141c0.055-0.374,0.046-0.766,0.073-1.143
			c0.058-0.818-0.061-1.67-0.061-2.496c0-0.764,0.085-1.535,0.085-2.285c0-0.385-0.107-0.766-0.107-1.146
			c0-0.437,0.146-0.932,0.075-1.354c-0.123-0.755,0.081-1.529-0.002-2.294c-0.09-0.834,0.083-1.61,0.003-2.442
			c-0.149-1.594,0.051-3.192,0.051-4.793c0-0.767-0.076-1.524-0.076-2.287c0-0.801-0.151-1.703,0.027-2.502
			c0.162-0.713-0.034-1.547,0.034-2.292c0.029-0.347,0.069-0.816-0.039-1.148c-0.151-0.469,0.112-0.832-0.035-1.301
			c-0.116-0.351,0.064-0.771,0.006-1.146c-0.057-0.369,0.014-0.777,0.017-1.147c0.008-0.837-0.038-1.667-0.038-2.505
			c0-0.387-0.023-0.767-0.023-1.147c0-0.205,0.108-0.365,0.108-0.568c0-0.214-0.127-0.365-0.127-0.576
			c0-0.38,0.089-0.763,0.089-1.146c0-0.439-0.094-0.938-0.048-1.362c0.076-0.691,0.145-1.613,0.054-2.298
			c-0.109-0.815,0.08-1.63-0.053-2.442c-0.059-0.373-0.023-0.771-0.045-1.148c-0.026-0.435,0.213-0.705,0.085-1.148
			c-0.101-0.342-0.064-0.822,0.04-1.15c0.138-0.406-0.122-0.938-0.122-1.356c0-0.766,0.095-1.539,0.095-2.29
			c0-0.382-0.071-0.765-0.071-1.143c0-0.463,0.13-0.869,0.064-1.354c-0.099-0.756,0.124-1.549-0.011-2.298
			c-0.146-0.804,0.188-1.657-0.05-2.445c-0.116-0.382,0.151-0.737,0.061-1.149c-0.08-0.346-0.015-0.799,0.037-1.146
			c0.062-0.419-0.144-0.729-0.003-1.148c0.151-0.443-0.076-0.93-0.076-1.365c0-0.777,0.105-1.526,0.105-2.302
			c0-0.38-0.093-0.763-0.093-1.151c0-0.201,0.088-0.375,0.088-0.576c0-0.287-0.182-0.486-0.107-0.788
			c0.183-0.731-0.262-1.577,0.002-2.306c0.145-0.406,0-0.734,0.008-1.152c0.01-0.434,0.065-0.869-0.007-1.301
			c-0.06-0.371-0.064-0.802,0.075-1.152c0.122-0.314-0.029-0.818-0.029-1.154c-0.004-0.846,0.029-1.68,0.029-2.521
			c0-0.713-0.522-1.822,0.528-1.822c0.211,0,0.355,0.131,0.569,0.131c0.2,0,0.367-0.094,0.572-0.094c0.445,0,0.905-0.004,1.349-0.02
			c1.569-0.062,3.143,0.254,4.719,0.027c0.717-0.104,1.569,0.014,2.287,0.091c0.378,0.04,0.754-0.125,1.144-0.138
			c0.218-0.006,0.369,0.022,0.571,0.098c0.264,0.102,0.518-0.041,0.783-0.041c0.764,0,1.525-0.027,2.289-0.027
			c0.209,0,0.36,0.125,0.572,0.125c0.21,0,0.362-0.123,0.569-0.123c0.424,0,0.943-0.041,1.354,0.045
			c0.733,0.156,1.573-0.271,2.286-0.043c0.394,0.125,0.74,0.017,1.145,0.027c0.438,0.014,0.864,0.152,1.287,0.009
			c0.329-0.108,0.796,0.041,1.14,0.028c0.408-0.01,0.754-0.129,1.145,0.029c0.312,0.123,0.804-0.07,1.139-0.061
			c0.458,0.015,0.905-0.068,1.356-0.068c0.367,0,0.746,0.119,1.14,0.119c0.377,0,0.755-0.068,1.142-0.068
			c0.791,0,1.717-0.191,2.494-0.029c0.761,0.156,1.52-0.061,2.285-0.004c0.379,0.027,0.764,0.043,1.142,0.093
			c0.464,0.061,0.842-0.165,1.289-0.009c0.734,0.25,1.62-0.262,2.29,0.011c0.32,0.132,0.793-0.052,1.142-0.01
			c0.485,0.059,0.9-0.09,1.356-0.09c0.774,0,1.514,0.144,2.291,0.144c0.767,0,1.735-0.261,2.5-0.085
			c0.73,0.165,1.528-0.225,2.286-0.027c0.591,0.153,1.862,0.229,2.433,0.024c0.369-0.134,0.747,0.102,1.143-0.024
			c0.341-0.107,0.776,0.069,1.142,0.039c0.399-0.032,0.763-0.129,1.142,0.02c0.385,0.151,0.949-0.101,1.354-0.101
			c1.591,0,3.206,0.278,4.767,0.04c0.333-0.052,0.801-0.076,1.133,0.032c0.42,0.137,0.724-0.079,1.136-0.014
			c0.819,0.135,1.608,0.061,2.421-0.027c0.39-0.043,0.742,0.127,1.137,0.102c0.381-0.024,0.752-0.076,1.136-0.063
			c0.821,0.026,1.665,0.041,2.487,0.041c1.605,0,3.165-0.07,4.771-0.002c0.755,0.031,1.529,0.06,2.282-0.022
			c0.812-0.088,1.625,0.088,2.438,0.068c0.755-0.02,1.54-0.01,2.291-0.141c0.365-0.062,0.771,0.097,1.144,0.105
			c0.453,0.014,0.906-0.002,1.357-0.002c1.581,0,3.206-0.238,4.778-0.084c0.377,0.038,0.768,0.045,1.143,0.017
			c0.385-0.027,0.776,0.149,1.143,0.069c0.4-0.086,0.744,0.037,1.141,0.014c0.443-0.025,0.855-0.184,1.289-0.057
			c0.357,0.105,0.762-0.096,1.141-0.041c0.396,0.057,0.752-0.062,1.143,0.043c0.337,0.091,0.795-0.031,1.143-0.051
			c0.444-0.021,0.904,0.033,1.354,0.033c0.765,0,1.528-0.021,2.286-0.021c0.203,0,0.367,0.102,0.572,0.102
			c0.215,0,0.356-0.143,0.569-0.143c0.222,0,0.354,0.161,0.576,0.161c0.272,0,0.5-0.12,0.785-0.091
			c0.789,0.076,1.501-0.035,2.295-0.021c0.38,0.008,0.767,0.022,1.146-0.012c0.455-0.039,0.84,0.141,1.293,0.072
			c1.568-0.248,3.207-0.072,4.784-0.072c1.618,0,3.212,0.034,4.792,0.08c0.76,0.024,1.531-0.018,2.295-0.063
			c0.814-0.054,1.621,0.112,2.442,0.063c1.604-0.088,3.218-0.076,4.794-0.076c1.585,0,3.218,0.203,4.807,0.047
			c0.678-0.065,1.614-0.145,2.291-0.053c0.379,0.053,0.771,0.02,1.146,0.082c0.485,0.084,0.841-0.205,1.295,0.002
			c0.688,0.311,1.599-0.258,2.3-0.021c0.768,0.259,1.712-0.098,2.498-0.098c0.376,0,0.755,0.1,1.145,0.1
			c0.377,0,0.756-0.029,1.143-0.029c0.811,0,1.697,0.042,2.503-0.031c1.578-0.144,3.168,0.308,4.739-0.004
			c0.404-0.078,0.734,0.136,1.148,0.023c0.362-0.093,0.773,0.076,1.15,0.033c0.861-0.097,1.666,0.055,2.512,0.055
			c0.768,0,1.535-0.021,2.305-0.021c0.769,0,1.771-0.266,2.518-0.084c0.406,0.099,0.754-0.084,1.152-0.012
			c0.371,0.07,0.766,0.096,1.147,0.09c0.824-0.009,1.609-0.104,2.452-0.064c0.725,0.035,1.605,0.188,2.311,0.008
			c0.352-0.088,0.801-0.061,1.155-0.021c0.203,0.021,0.38,0.032,0.577,0.091c0.3,0.087,0.417-0.14,0.67-0.132
			c0.325,0.012,0.2,1.843,0.163,2.15c-0.101,0.844-0.074,1.646-0.074,2.497c0,0.745,0.126,1.525,0.126,2.283
			c0,0.378-0.059,0.757-0.059,1.143c0,0.194,0.054,0.378,0.054,0.575c0,0.286-0.2,0.473-0.121,0.781
			c0.187,0.693,0.107,1.582,0.04,2.293c-0.076,0.832,0.067,1.607,0.072,2.44c0.004,0.767-0.035,1.521,0.002,2.293
			c0.038,0.833-0.122,1.692-0.122,2.503c0,0.759,0.07,1.523,0.07,2.291c0,0.847,0.002,1.662,0.007,2.5
			c0,0.345-0.143,0.814-0.036,1.143c0.133,0.422-0.052,0.727-0.022,1.148c0.049,0.779-0.177,1.699,0.055,2.443
			c0.105,0.338-0.111,0.785-0.104,1.15c0.004,0.381,0.016,0.771,0.092,1.143c0.072,0.352,0.015,0.803-0.055,1.15
			c-0.087,0.445,0.088,0.913,0.088,1.359c0,0.767-0.052,1.523-0.052,2.291c0,0.381,0.045,0.762,0.045,1.147
			c0,0.395,0.07,0.982-0.026,1.358c-0.092,0.366-0.106,0.771-0.09,1.149c0.019,0.388,0.188,0.769,0.147,1.148
			c-0.093,0.823-0.039,1.623-0.049,2.444c-0.005,0.396-0.081,0.761,0.012,1.146c0.097,0.399-0.121,0.738,0,1.148
			c0.235,0.812-0.119,1.715-0.119,2.514c0,0.207,0.12,0.365,0.12,0.572c0,0.206-0.094,0.372-0.094,0.575
			c0,0.379,0.029,0.758,0.029,1.144c0,0.811,0.146,1.696,0.039,2.498c-0.215,1.588,0.244,3.141-0.013,4.735
			c-0.133,0.789,0.101,1.504-0.039,2.297c-0.142,0.783,0.013,1.708,0.013,2.511c0,0.768,0.052,1.535,0.052,2.301
			c0,0.838-0.163,1.679-0.029,2.517c0.117,0.751,0.019,1.549-0.052,2.306c-0.035,0.365,0.195,0.818,0.072,1.15
			c-0.15,0.406-0.117,0.885-0.008,1.303c0.176,0.674,0.033,1.617-0.033,2.299c-0.037,0.375,0.008,0.789,0.063,1.156
			c0.067,0.43-0.106,0.922-0.106,1.367c0,0.57,0.104,1.152,0.104,1.734c0,0.324-0.108,0.611-0.028,0.938
			C261.033,91.354,261.169,91.641,260.943,91.866C260.745,92.068,261.148,91.657,260.943,91.866 M93.261,89.677
			c0.315,0.316,0.815-0.096,1.16-0.096c0.369,0,0.749,0.153,1.142,0.153c0.381,0,0.761-0.043,1.146-0.043
			c0.412,0,0.967-0.174,1.354-0.072c0.351,0.095,0.785,0.102,1.146,0.029c0.376-0.073,0.811,0.193,1.145,0.049
			c0.696-0.299,1.676,0.019,2.438-0.062c0.767-0.076,1.53,0.088,2.286,0.037c0.827-0.055,1.687,0.016,2.502,0.016
			c0.76,0,1.514-0.073,2.283-0.073c0.385,0,0.764,0.127,1.144,0.127c0.215,0,0.354-0.146,0.573-0.146
			c0.278,0,0.49,0.213,0.781,0.094c0.714-0.293,1.561,0.125,2.283,0.006c0.834-0.139,1.617,0.045,2.435-0.006
			c1.587-0.101,3.182-0.021,4.78-0.021c0.758,0,1.526-0.048,2.288-0.048c0.821,0,1.681,0.179,2.498,0.11
			c1.566-0.129,3.171,0.123,4.727-0.062c0.769-0.092,1.531,0.084,2.29,0.02c0.81-0.073,1.694-0.041,2.501-0.041
			c0.385,0,0.765,0.072,1.144,0.072c0.207,0,0.365-0.121,0.574-0.121s0.355,0.137,0.57,0.137c0.837,0,1.64-0.235,2.496-0.146
			c1.569,0.163,3.144-0.024,4.721,0.07c1.583,0.094,3.191,0.036,4.758,0.036c0.388,0,0.766-0.09,1.139-0.09
			c0.374,0,0.751,0.131,1.139,0.131c0.389,0,0.767-0.131,1.136-0.131c0.204,0,0.369,0.101,0.57,0.101
			c0.278,0,0.487-0.149,0.778-0.104c0.728,0.113,1.588-0.213,2.276,0.017c0.424,0.137,0.729-0.099,1.141-0.013
			c0.431,0.086,0.854-0.012,1.288,0.074c0.688,0.135,1.582-0.008,2.279-0.06c0.376-0.026,0.771-0.019,1.143,0.044
			c0.473,0.078,0.897-0.089,1.354-0.089c0.749,0,1.54,0.124,2.289,0.124c0.382,0,0.762-0.068,1.145-0.068
			c0.204,0,0.37,0.098,0.572,0.098c0.289,0,0.477-0.192,0.786-0.133c0.367,0.074,0.775,0.068,1.148,0.021
			c0.398-0.05,0.746,0.067,1.146,0.077c0.769,0.018,1.691,0.154,2.436-0.061c0.345-0.107,0.774,0.084,1.144,0.061
			c0.389-0.024,0.747-0.11,1.142-0.09c0.391,0.015,0.75,0.113,1.143,0.133c0.476,0.021,0.907-0.143,1.354-0.143
			c0.774,0,1.522,0.066,2.282,0.066c0.798,0,1.695,0.09,2.491-0.026c0.748-0.108,1.534,0.087,2.29,0.103
			c0.405,0.015,0.741-0.133,1.142-0.145c0.444-0.014,0.848,0.106,1.291,0.129c0.758,0.033,1.522-0.117,2.291-0.092
			c0.84,0.027,1.676,0.002,2.51,0.002c0.771,0,1.533,0.047,2.295,0.047c0.381,0,0.763-0.017,1.145-0.017
			c0.411,0,0.963-0.082,1.355-0.013c0.385,0.067,0.771-0.082,1.145,0.004c0.34,0.078,0.798,0.137,1.145,0.063
			c0.771-0.166,1.651-0.045,2.437-0.034c1.601,0.018,3.192,0.025,4.801,0.025c0.771,0,1.528-0.074,2.296-0.074
			c0.387,0,0.77-0.052,1.146-0.052c0.453,0,0.919,0.146,1.357,0.097c0.379-0.037,0.772,0.012,1.146-0.059
			c0.423-0.071,0.734,0.107,1.146,0.093c0.342-0.014,0.821-0.176,1.146-0.069c0.408,0.137,0.879,0.106,1.298,0.006
			c0.352-0.078,0.794-0.035,1.148,0.006c0.41,0.044,0.738-0.119,1.149,0.006c0.767,0.23,1.724-0.031,2.507-0.031
			c0.771,0,1.526,0.061,2.295,0.061c0.377,0,0.758-0.096,1.149-0.096c0.454,0,0.905,0.186,1.363,0.139
			c1.589-0.166,3.134,0.009,4.729-0.102c0.768-0.056,1.52,0.195,2.286,0.051c0.845-0.156,1.685,0.041,2.511,0.041
			c0.768,0,1.531-0.055,2.297-0.055c0.384,0,0.768,0.01,1.148,0.01c0.203,0,0.371-0.096,0.574-0.096c0.286,0,0.48,0.193,0.785,0.117
			c0.359-0.086,0.785-0.106,1.154-0.059c0.364,0.049,0.811-0.14,1.149-0.021c0.408,0.148,0.743-0.044,1.149,0.044
			c0.428,0.09,0.867,0.021,1.302-0.011c0.396-0.022,0.756,0.074,1.151,0.005c0.375-0.065,0.783-0.105,1.152-0.019
			c0.834,0.203,1.693-0.047,2.518-0.047c0.774,0,1.521,0.088,2.307,0.088c0.814,0,1.717-0.186,2.521,0
			c0.418,0.098,0.737-0.076,1.151-0.048c0.388,0.027,0.771,0.017,1.161,0.024c0.234,0.006,0.825,0.217,0.996,0.05
			c0.15-0.147,0.003-0.288-0.062-0.429c-0.132-0.283,0.094-0.481,0.094-0.758c0-0.39-0.15-0.767-0.15-1.136
			c0-0.381,0.126-0.76,0.126-1.132c0-0.804-0.271-1.679-0.048-2.484c0.124-0.439-0.135-0.716-0.076-1.142
			c0.05-0.377,0.057-0.76,0.085-1.142c0.058-0.795-0.021-1.623-0.047-2.426c-0.049-1.602,0.065-3.18,0.065-4.766
			c0-0.756-0.006-1.516-0.006-2.275c0-0.382-0.097-0.76-0.097-1.139c0-0.449,0.151-0.879,0.104-1.349
			c-0.068-0.771-0.01-1.511,0.018-2.274c0.025-0.822-0.107-1.594,0.005-2.432c0.104-0.742-0.041-1.539-0.062-2.281
			c-0.021-0.832,0.002-1.66,0.002-2.488c0-0.76,0.05-1.512,0.05-2.281c0-0.381-0.002-0.76-0.002-1.142
			c0-0.205-0.115-0.36-0.115-0.567c0-0.287,0.2-0.483,0.103-0.783c-0.209-0.641-0.039-1.592-0.033-2.283
			c0.009-0.811-0.031-1.62-0.032-2.429c0-0.406,0.125-0.742,0.003-1.139c-0.121-0.395,0.133-0.73-0.014-1.142
			c-0.108-0.317,0.021-0.815,0.049-1.143c0.039-0.478-0.053-0.897-0.053-1.356c0-0.756,0.078-1.524,0.078-2.273
			c0-0.381-0.078-0.758-0.078-1.137c0-0.449,0.113-0.896,0.041-1.348c-0.062-0.379-0.041-0.758-0.064-1.137
			c-0.021-0.382,0.23-0.789,0.126-1.141c-0.235-0.791,0.03-1.61-0.114-2.433c-0.121-0.642-0.109-1.656,0.057-2.28
			c0.088-0.342,0.045-0.805-0.029-1.141c-0.084-0.385,0.059-0.946,0.059-1.356c0-0.783-0.007-1.515-0.007-2.286
			c0-0.379-0.042-0.762-0.042-1.144c0-0.429,0.154-0.938,0.022-1.358c-0.132-0.435,0.144-0.732,0.052-1.143
			c-0.083-0.363-0.083-0.779-0.025-1.148c0.053-0.375-0.156-0.799-0.037-1.145c0.138-0.403,0.113-0.881,0.006-1.296
			c-0.18-0.712,0.096-1.569,0.084-2.286c-0.01-0.388-0.081-0.762-0.094-1.15c-0.008-0.203,0.013-0.375,0.062-0.572
			c0.07-0.301-0.105-0.502-0.105-0.787c0-0.758-0.01-1.527-0.01-2.303c0-0.129,0.391-0.92-0.166-0.662
			c-0.385,0.18-0.854,0.119-1.271,0.082c-0.373-0.036-0.767,0.044-1.14,0.061c-0.416,0.02-0.726-0.166-1.146-0.089
			c-0.814,0.144-1.684-0.01-2.502-0.01c-1.648,0-3.146,0.107-4.79,0.099c-0.713-0.002-1.591,0.088-2.287-0.069
			c-0.792-0.181-1.638,0.073-2.435,0.013c-0.752-0.061-1.521,0.053-2.283-0.021c-0.387-0.04-0.78-0.088-1.145,0.055
			c-0.466,0.179-0.908-0.085-1.354-0.085c-1.607,0-3.193,0.071-4.778,0.071c-0.776,0-1.506-0.023-2.284,0.035
			c-0.395,0.027-0.767-0.143-1.145-0.078c-0.422,0.069-0.879,0.069-1.291-0.033c-0.381-0.096-0.743,0.122-1.145,0.045
			c-0.354-0.069-0.798-0.027-1.142,0.049c-0.413,0.09-0.72-0.172-1.147-0.043c-0.388,0.113-0.945,0.033-1.354,0.033
			c-0.192,0-0.378,0.055-0.572,0.055c-0.221,0-0.353-0.162-0.571-0.162c-0.39,0-0.768,0.131-1.147,0.131
			c-0.829,0-1.67-0.021-2.5,0.015c-0.763,0.034-1.519-0.054-2.287-0.01c-0.771,0.039-1.721-0.288-2.435-0.021
			c-0.33,0.121-0.789-0.095-1.145-0.069c-0.415,0.031-0.752-0.104-1.145,0.071c-0.34,0.146-0.762-0.134-1.145-0.049
			c-0.422,0.092-0.925-0.044-1.353-0.044c-0.378,0-0.759,0.053-1.146,0.053c-0.387,0-0.768-0.048-1.144-0.048
			c-0.387,0-0.764,0.085-1.143,0.085c-0.438,0-0.91-0.127-1.347-0.051c-0.378,0.07-0.776-0.109-1.136-0.004
			c-0.364,0.104-0.758,0.094-1.139,0.087c-0.781-0.015-1.649-0.005-2.422-0.134c-0.408-0.07-0.716,0.156-1.137,0.047
			c-0.387-0.104-0.732,0.121-1.137,0.02c-0.338-0.086-0.812-0.01-1.141,0.062c-0.219,0.047-0.373-0.006-0.57-0.084
			c-0.264-0.105-0.516,0.045-0.777,0.045c-0.759,0-1.521-0.062-2.277-0.062c-0.384,0-0.764-0.012-1.141-0.012
			c-0.202,0-0.368,0.093-0.57,0.093c-0.275,0-0.494-0.15-0.783-0.081c-1.543,0.369-3.174-0.344-4.717,0.036
			c-0.765,0.187-1.506-0.139-2.287,0.003c-0.819,0.149-1.69-0.021-2.509-0.021c-0.767,0-1.524,0.065-2.286,0.065
			c-0.824,0-1.678-0.115-2.502-0.084c-0.762,0.036-1.518-0.024-2.283,0.013c-0.789,0.034-1.655,0.117-2.432-0.035
			c-0.351-0.072-0.799-0.028-1.141,0.051c-0.371,0.088-0.759-0.059-1.144,0.014c-0.815,0.15-1.66-0.053-2.494-0.053
			c-1.592,0-3.214,0.233-4.789,0.121c-0.688-0.049-1.647,0.146-2.294-0.053c-0.406-0.123-0.748,0.059-1.146-0.021
			c-0.419-0.086-0.89-0.08-1.297,0.053c-0.377,0.123-0.746-0.113-1.147,0.006c-0.351,0.099-0.775-0.04-1.144,0.006
			c-0.394,0.047-0.743-0.111-1.146-0.043c-0.466,0.079-0.898-0.045-1.354-0.045c-0.763,0-1.53,0.002-2.289,0.002
			c-0.385,0-0.766-0.037-1.145-0.037c-0.214,0-0.355,0.142-0.572,0.142c-0.295,0-0.469-0.224-0.786-0.134
			c-0.352,0.101-0.78,0.091-1.146,0.02c-0.411-0.08-0.737,0.068-1.147,0.068c-0.738,0-1.762,0.188-2.445-0.068
			c-0.6-0.222-1.651,0.108-2.293,0.114c-0.836,0.011-1.673-0.026-2.508-0.026c-0.766,0-1.547-0.109-2.291-0.109
			c-0.38,0-0.763,0.098-1.146,0.098c-0.206,0-0.373-0.104-0.577-0.104c-0.289,0-0.481,0.207-0.788,0.11
			c-0.326-0.1-0.812-0.163-1.148-0.069c-0.411,0.116-0.739-0.068-1.147,0c-0.823,0.137-1.62-0.057-2.443-0.033
			c-0.723,0.018-1.607-0.124-2.298,0.049c-0.799,0.195-1.723-0.034-2.509-0.034c-0.761,0-1.521,0.081-2.288,0.081
			c-0.38,0-0.759-0.093-1.143-0.093c-0.452,0-0.913,0.085-1.355,0.054c-0.731-0.053-1.565-0.083-2.295,0.016
			c-0.77,0.106-1.743-0.304-2.45,0.019c-0.309,0.144-0.793-0.124-1.145-0.099c-0.388,0.03-0.772,0.006-1.148,0.11
			c-0.333,0.087-0.804-0.09-1.152-0.124c-0.465-0.044-0.909,0.139-1.363,0.139c-0.395,0-0.776-0.106-1.151-0.106
			c-0.387,0-0.77,0.126-1.149,0.126c-0.824,0-1.689,0.025-2.52-0.031c-0.382-0.023-0.769,0.044-1.149,0.005
			c-0.329-0.034-0.839-0.185-1.154-0.073c-0.738,0.266-1.659-0.082-2.45-0.002c-0.395,0.039-0.772,0.116-1.155-0.002
			c-0.371-0.118-0.759,0.095-1.155,0.001c-0.721-0.173-1.774,0.029-2.521,0.029c-0.386,0-0.773-0.065-1.164-0.065
			c-0.653,0-0.59,0.012-0.59,0.623c0,0.838-0.063,1.643,0.039,2.48c0.088,0.713,0.044,1.557-0.041,2.27
			c-0.096,0.82,0.11,1.603,0.056,2.431c-0.049,0.757-0.071,1.523-0.091,2.278c-0.012,0.382,0.078,0.762,0.109,1.143
			c0.036,0.466-0.141,0.898-0.141,1.35c0,0.75,0.142,1.52,0.142,2.275c0,0.838-0.186,1.633-0.122,2.482
			c0.054,0.748,0.015,1.544,0.107,2.279c0.054,0.396-0.14,0.755-0.071,1.137c0.074,0.422,0.156,0.883-0.005,1.287
			c-0.124,0.311,0.061,0.799,0.047,1.138c-0.018,0.39,0.059,0.756,0.005,1.144c-0.127,0.859,0.048,1.645,0.048,2.492
			c0,0.768-0.009,1.514-0.009,2.279c0,0.384-0.054,0.762-0.054,1.139c0,0.408,0.153,0.967,0.029,1.351
			c-0.13,0.397,0.002,0.734,0.028,1.14c0.022,0.393-0.117,0.759-0.075,1.143c0.088,0.784-0.188,1.688,0.01,2.432
			c0.09,0.338,0.041,0.803-0.021,1.141c-0.079,0.411,0.147,0.721,0.009,1.141c-0.112,0.35,0.014,0.773-0.057,1.139
			c-0.069,0.389,0.008,0.949,0.008,1.354c0,0.204,0.109,0.36,0.109,0.569c0,0.211-0.135,0.355-0.135,0.57
			c0,0.383,0.041,0.764,0.041,1.146c0,0.789-0.089,1.701,0.045,2.486c0.13,0.773-0.153,1.519-0.046,2.271
			c0.116,0.812-0.047,1.632,0.066,2.423c0.076,0.504-0.125,1.049-0.099,1.563c0.022,0.525,0.119,0.979,0.119,1.506
			c0,0.498-0.023,0.996-0.019,1.498c0.004,0.482-0.146,1.101-0.032,1.564c0.063,0.266,0.063,0.456-0.01,0.719
			c-0.08,0.284,0.08,0.506,0.08,0.783c0,0.502,0.008,0.999-0.023,1.504c-0.071,1.109-0.01,2.166-0.076,3.285
			c-0.059,0.98,0,2.028,0.015,3.01c0.018,1.107,0.121,2.164,0.071,3.289c-0.021,0.5-0.127,1.006-0.127,1.508
			c0,0.521,0.134,0.953,0.034,1.508c-0.078,0.431-0.069,1.142-0.015,1.576C93.27,88.505,93.03,89.441,93.261,89.677
			C93.463,89.88,93.059,89.473,93.261,89.677"/>
		<path d="M257.561,88.48c-0.144,0.146-0.916,0.054-1.158,0.054c-0.381,0-0.762-0.095-1.144-0.095c-0.821,0-1.688-0.084-2.501-0.03
			c-1.555,0.106-3.17-0.089-4.72,0.106c-0.74,0.09-1.522-0.129-2.288-0.026c-0.361,0.051-0.779-0.027-1.145-0.066
			c-0.431-0.045-0.907,0.066-1.351,0.066c-0.771,0-1.521,0.004-2.284,0.004c-0.837,0-1.658,0.059-2.496,0.043
			c-0.767-0.021-1.507-0.122-2.283-0.035c-0.377,0.045-0.789-0.153-1.143-0.049c-0.468,0.14-0.822-0.136-1.287,0.026
			c-0.346,0.121-0.781-0.021-1.143,0.043c-0.35,0.068-0.811-0.008-1.143-0.107c-0.74-0.221-1.754,0.126-2.498,0.126
			c-0.771,0-1.502-0.114-2.285-0.114c-0.381,0-0.764,0.085-1.144,0.085c-0.461,0-0.87-0.182-1.354-0.079
			c-0.719,0.151-1.583-0.223-2.289,0c-0.578,0.182-1.861,0.196-2.438,0.012c-0.326-0.103-0.802,0.047-1.145,0.062
			c-0.381,0.018-0.752-0.096-1.143-0.102c-0.383-0.008-0.761,0.09-1.144,0.119c-0.448,0.039-0.896-0.139-1.354-0.139
			c-0.383,0-0.762,0.075-1.144,0.075c-0.198,0-0.372,0.074-0.569,0.074c-0.215,0-0.357-0.142-0.572-0.142
			c-0.375,0-0.756,0.086-1.145,0.086c-0.387,0-0.99-0.145-1.354-0.03c-0.739,0.237-1.526-0.099-2.283-0.003
			c-0.814,0.104-1.613,0.017-2.422-0.047c-0.749-0.059-1.504,0.123-2.272,0.062c-0.813-0.063-1.668-0.03-2.481-0.03
			c-1.596,0-3.18,0.055-4.758,0.012c-0.752-0.019-1.537,0.106-2.281,0.021c-0.764-0.087-1.668-0.146-2.426-0.014
			c-0.729,0.127-1.533-0.132-2.28-0.025c-0.841,0.117-1.662,0.07-2.5,0.07c-0.771,0-1.515-0.072-2.29-0.072
			c-0.834,0-1.67,0.072-2.502,0.035c-1.572-0.071-3.153,0.121-4.721,0.06c-1.605-0.062-3.213-0.054-4.773-0.054
			c-1.59,0-3.203-0.144-4.779,0.006c-0.381,0.036-0.763,0.017-1.143-0.005c-0.385-0.021-0.768,0.122-1.143,0.064
			c-0.792-0.116-1.645-0.194-2.439-0.049c-0.365,0.066-0.771-0.074-1.145-0.067c-0.382,0.006-0.772,0.063-1.149,0.116
			c-0.373,0.058-0.761-0.123-1.146-0.129c-0.452-0.013-0.904,0.062-1.358,0.062c-0.764,0-1.532-0.03-2.289-0.03
			c-0.384,0-0.764-0.027-1.143-0.027c-0.203,0-0.371,0.092-0.572,0.092c-0.275,0-0.498-0.127-0.781-0.094
			c-0.357,0.041-0.792,0.145-1.146,0.082c-0.38-0.064-0.784,0.133-1.142,0.022c-0.629-0.188-1.808-0.19-2.439-0.026
			c-0.378,0.098-0.75-0.082-1.146,0.012c-0.344,0.086-0.808,0.029-1.148-0.049c-0.786-0.176-1.709,0.004-2.507,0.004
			c-0.764,0-1.546,0.082-2.291,0.082c-0.376,0-0.758-0.057-1.146-0.057c-0.453,0-0.904,0.104-1.357,0.02
			c-0.75-0.135-1.545,0.062-2.292-0.055c-0.397-0.061-0.754,0.043-1.146,0.027c-0.437-0.011-0.881-0.091-1.301,0.041
			c-0.383,0.122-0.736-0.129-1.146-0.005c-0.341,0.106-0.786-0.088-1.147-0.074c-0.844,0.027-1.668,0.097-2.504,0.097
			c-0.758,0-1.531-0.104-2.302-0.104c-0.384,0-0.765-0.019-1.147-0.019c-0.452,0-0.88,0.209-1.354,0.123
			c-0.354-0.063-0.818,0.111-1.143-0.022c-0.414-0.171-0.733,0.053-1.143-0.047c-0.731-0.181-1.681-0.05-2.436-0.026
			c-0.764,0.022-1.539-0.021-2.295,0.026c-0.835,0.057-1.667,0.092-2.512,0.092c-0.377,0-0.757-0.092-1.144-0.092
			c-0.391,0-0.771,0.063-1.149,0.063c-0.799,0-1.728,0.151-2.515,0.01c-0.381-0.067-0.762-0.049-1.147-0.069
			c-0.363-0.024-0.809,0.125-1.151,0.021c-0.754-0.22-1.657,0.115-2.454-0.059c-0.751-0.163-1.595,0.232-2.306,0.006
			c-0.327-0.105-0.804,0.057-1.147,0.072c-0.465,0.02-0.909-0.066-1.365-0.066c-1.608,0-3.238-0.021-4.833,0.062
			c-0.251,0.011-0.979,0.236-1.044-0.15c-0.048-0.264,0.095-0.723,0.095-1.021c0-0.784,0.145-1.729-0.006-2.498
			c-0.151-0.77,0.041-1.524,0.012-2.295c-0.034-0.811-0.07-1.643-0.003-2.446c0.062-0.75-0.085-1.526-0.038-2.289
			c0.052-0.847-0.033-1.662-0.033-2.5c0-0.385,0.033-0.769,0.033-1.146c0-0.207,0.117-0.367,0.117-0.574
			c0-0.203-0.11-0.365-0.11-0.568c0-0.806-0.04-1.699,0.052-2.502c0.094-0.763-0.117-1.523-0.004-2.293
			c0.117-0.822-0.136-1.643-0.055-2.449c0.075-0.729,0.059-1.552,0.084-2.295c0.022-0.832-0.009-1.672-0.009-2.506
			c0-0.766-0.03-1.518-0.03-2.293c0-0.389,0.07-0.768,0.07-1.146c0-0.449-0.119-0.905-0.057-1.36c0.099-0.729,0.04-1.56-0.018-2.298
			c-0.062-0.81,0.211-1.662-0.024-2.444c-0.104-0.338,0.078-0.787,0.071-1.148c-0.004-0.383-0.088-0.759-0.11-1.145
			c-0.019-0.381,0.077-0.771,0.106-1.15c0.035-0.461-0.098-0.908-0.098-1.364c0-0.767,0.062-1.517,0.062-2.288
			c0-0.385,0.046-0.764,0.046-1.143c0-0.203-0.101-0.367-0.101-0.573c0-0.275,0.141-0.491,0.106-0.782
			c-0.078-0.701-0.083-1.586-0.018-2.289c0.031-0.342,0.087-0.822-0.023-1.152c-0.153-0.457,0.084-0.828,0.019-1.3
			c-0.215-1.54-0.077-3.231-0.077-4.809c0-0.767,0.012-1.526,0.012-2.3c0-0.835,0.164-1.693,0.028-2.518
			c-0.067-0.384-0.033-0.765-0.034-1.152c-0.002-0.355,0.186-0.817,0.078-1.152c-0.236-0.754,0.044-1.673,0.002-2.455
			c-0.023-0.392-0.121-0.752-0.126-1.152c-0.007-0.398,0.144-0.742,0.128-1.15c-0.018-0.383,0.007-0.772,0.021-1.158
			c0.015-0.461-0.146-0.909-0.146-1.365c0-0.379,0.079-0.766,0.079-1.16c0-0.199,0.065-0.383,0.065-0.582
			c0-0.184-0.172-0.298-0.172-0.471c-0.002-0.425,2.057-0.031,2.389-0.031c0.373,0,0.75-0.156,1.141-0.156
			c0.383,0,0.763,0.006,1.144,0.006c0.816,0,1.67,0.167,2.505,0.082c0.752-0.079,1.53-0.091,2.282,0.002
			c0.814,0.1,1.61-0.101,2.435,0.002c0.746,0.093,1.534-0.107,2.284,0.024c0.368,0.065,0.772-0.052,1.144-0.046
			c0.455,0.005,0.898,0.036,1.354,0.036c1.592,0,3.187-0.153,4.776-0.031c0.708,0.056,1.569,0.04,2.283-0.029
			c0.805-0.077,1.622,0.104,2.434,0.073c1.6-0.059,3.211-0.066,4.779-0.066c1.566,0,3.236-0.145,4.788,0.054
			c0.664,0.086,1.64,0.156,2.29-0.021c0.417-0.112,0.733,0.09,1.142,0.03c0.425-0.062,0.875-0.08,1.292,0.004
			c0.674,0.134,1.601,0.004,2.286-0.044c0.381-0.026,0.764,0.028,1.145,0.036c0.469,0.015,0.91-0.114,1.354-0.114
			c0.765,0,1.51,0.081,2.284,0.081c0.381,0,0.762-0.08,1.142-0.08c0.428,0,0.96,0.197,1.354,0.108
			c0.314-0.071,0.824-0.159,1.135-0.046c0.414,0.152,0.73-0.052,1.141,0.027c0.808,0.156,1.634-0.154,2.418-0.004
			c0.352,0.064,0.784,0.004,1.137-0.039c0.396-0.049,0.738,0.107,1.136,0.021c0.799-0.167,1.683,0.067,2.486,0.067
			c1.592,0,3.17-0.154,4.761-0.075c0.742,0.035,1.54,0.067,2.281,0.045c0.705-0.023,1.775-0.201,2.43,0.016
			c0.381,0.127,0.729-0.152,1.144-0.041c0.406,0.114,0.724-0.137,1.143,0.038c0.305,0.126,0.84,0.027,1.146-0.058
			c0.478-0.128,0.901,0.075,1.355,0.075c0.386,0,0.766-0.125,1.148-0.125c0.372,0,0.75,0.098,1.143,0.098
			c0.791,0,1.719-0.194,2.5-0.068c0.7,0.118,1.593,0.188,2.284,0.037c0.39-0.083,0.79,0.171,1.144,0.04
			c0.401-0.148,0.86-0.129,1.289-0.099c1.573,0.116,3.187,0.067,4.774,0.067s3.188-0.126,4.78,0.02
			c0.337,0.027,0.812,0.122,1.144,0.022c0.306-0.091,0.832-0.204,1.146-0.091c0.724,0.266,1.662-0.127,2.442,0.014
			c0.414,0.077,0.742-0.102,1.148,0.059c0.301,0.124,0.832,0.012,1.145-0.04c0.799-0.132,1.693-0.038,2.501-0.038
			c0.763,0,1.526,0.006,2.289,0.006c0.756,0,1.772,0.275,2.497,0.091c0.343-0.087,0.796-0.12,1.146-0.041
			c0.393,0.088,0.751-0.04,1.145,0.013c0.818,0.121,1.623-0.18,2.439-0.022c0.78,0.151,1.537-0.104,2.299-0.056
			c0.834,0.051,1.653,0.124,2.504,0.124c0.766,0,1.523,0.009,2.289,0.009c0.812,0,1.698-0.279,2.506-0.107
			c0.672,0.143,1.613,0.115,2.297,0.057c0.826-0.07,1.615,0.07,2.443,0.029c1.604-0.082,3.199-0.043,4.803-0.043
			c1.589,0,3.184-0.059,4.791-0.035c3.188,0.045,6.367-0.053,9.533-0.053c0.217,0,0.356,0.146,0.572,0.146
			c0.204,0,0.375-0.088,0.577-0.088c0.383,0,0.771-0.023,1.151-0.023c0.791,0,1.744,0.271,2.513,0.096
			c0.714-0.164,1.577-0.056,2.304,0c0.812,0.062,1.617-0.209,2.455-0.093c1.602,0.229,3.229-0.042,4.82-0.042
			c0.766,0,1.542,0.037,2.312,0.037c0.199,0,0.375,0.086,0.58,0.086c0.151,0,0.295-0.141,0.438-0.119
			c0.388,0.058,0.162,0.947,0.162,1.222c0,0.773-0.045,1.5-0.045,2.286c0,0.387,0.084,0.768,0.084,1.148
			c0,0.469-0.105,0.896-0.105,1.359c-0.003,1.578,0.243,3.174-0.014,4.737c-0.108,0.667,0.002,1.606,0.082,2.289
			c0.092,0.786-0.045,1.694-0.045,2.499c0,0.775,0.103,1.516,0.103,2.29c0,0.854-0.126,1.64-0.067,2.505
			c0.047,0.766,0.062,1.53,0.004,2.299c-0.028,0.387,0.055,0.76,0.035,1.145c-0.021,0.447-0.177,0.859-0.055,1.297
			c0.1,0.354-0.014,0.783,0.025,1.146c0.046,0.372,0.031,0.792-0.071,1.146c-0.103,0.332,0.069,0.803,0.09,1.146
			c0.027,0.479-0.09,0.907-0.09,1.36c0,0.766,0.039,1.525,0.039,2.296c0,0.382-0.011,0.765-0.011,1.151
			c0,0.414,0.08,0.957,0.006,1.359c-0.074,0.386,0.176,0.797,0.045,1.146c-0.139,0.366-0.092,0.762-0.045,1.147
			c0.088,0.754,0.083,1.695,0.009,2.447c-0.041,0.405,0.114,0.739,0.003,1.149c-0.093,0.341-0.059,0.808,0.016,1.146
			c0.162,0.795,0.028,1.699,0.028,2.502c0,1.603,0,3.194-0.024,4.793c-0.051,3.203-0.043,6.355-0.043,9.56
			c0,0.581,0.067,1.151,0.067,1.728c0,0.637-0.13,1.303-0.028,1.94c0.084,0.537,0.067,1.183,0.062,1.729
			c-0.005,0.604-0.271,1.315-0.051,1.877c0.123,0.303-0.104,0.502-0.104,0.787c0,0.297,0.095,0.646,0.146,0.942
			c0.106,0.603-0.008,1.334-0.008,1.942c0,0.601-0.07,1.144-0.07,1.734c0,0.316-0.083,0.627,0.005,0.942
			C257.604,87.923,257.784,88.255,257.561,88.48C257.359,88.686,257.764,88.271,257.561,88.48 M95.284,87.652
			c0.211,0.214,0.839-0.055,1.127-0.055c0.379,0,0.762,0.096,1.146,0.096c0.817,0,1.688,0.084,2.504,0.029
			c1.559-0.106,3.17,0.09,4.724-0.104c0.737-0.094,1.521,0.123,2.286,0.021c0.362-0.048,0.78,0.028,1.144,0.068
			c0.433,0.044,0.908-0.068,1.353-0.068c0.771,0,1.521,0,2.286,0c0.836,0,1.658-0.062,2.496-0.043
			c0.771,0.018,1.508,0.12,2.284,0.032c0.376-0.043,0.79,0.152,1.144,0.048c0.472-0.136,0.829,0.139,1.289-0.025
			c0.348-0.121,0.781,0.022,1.145-0.045c0.35-0.064,0.811,0.012,1.143,0.11c0.741,0.218,1.755-0.125,2.499-0.125
			c0.775,0,1.509,0.111,2.29,0.111c0.385,0,0.764-0.085,1.145-0.085c0.461,0,0.874,0.181,1.358,0.079
			c0.718-0.15,1.584,0.223,2.289,0c0.582-0.181,1.859-0.195,2.438-0.011c0.326,0.103,0.807-0.049,1.145-0.065
			c0.385-0.017,0.756,0.101,1.146,0.106c0.379,0.006,0.758-0.09,1.141-0.121c0.448-0.037,0.899,0.14,1.355,0.14
			c0.384,0,0.764-0.078,1.146-0.078c0.195,0,0.371-0.071,0.57-0.071c0.214,0,0.355,0.139,0.569,0.139
			c0.376,0,0.755-0.084,1.146-0.084c0.39,0,0.994,0.146,1.354,0.029c0.739-0.238,1.521,0.098,2.276,0.004
			c0.812-0.104,1.612-0.017,2.421,0.049c0.752,0.059,1.507-0.125,2.278-0.064c0.812,0.066,1.671,0.033,2.482,0.033
			c1.599,0,3.185-0.057,4.766-0.014c0.752,0.021,1.54-0.105,2.283-0.021c0.764,0.089,1.671,0.146,2.43,0.014
			c0.731-0.127,1.533,0.135,2.286,0.027c0.839-0.116,1.666-0.07,2.504-0.07c0.769,0,1.518,0.073,2.295,0.073
			c0.834,0,1.665-0.071,2.503-0.035c1.567,0.07,3.15-0.125,4.721-0.059c1.605,0.062,3.211,0.051,4.778,0.051
			c1.586,0,3.204,0.144,4.781-0.007c0.378-0.038,0.766-0.018,1.146,0.005c0.383,0.021,0.767-0.122,1.142-0.065
			c0.795,0.117,1.651,0.196,2.444,0.053c0.365-0.07,0.774,0.072,1.149,0.064c0.382-0.007,0.769-0.062,1.147-0.117
			c0.371-0.056,0.762,0.125,1.145,0.133c0.454,0.008,0.905-0.064,1.359-0.064c0.762,0,1.531,0.033,2.287,0.033
			c0.388,0,0.766,0.029,1.146,0.029c0.202,0,0.37-0.092,0.572-0.092c0.274,0,0.498,0.127,0.784,0.092
			c0.354-0.043,0.789-0.144,1.146-0.082c0.382,0.065,0.785-0.131,1.144-0.025c0.63,0.191,1.81,0.191,2.443,0.029
			c0.381-0.1,0.756,0.082,1.146-0.014c0.346-0.082,0.81-0.029,1.15,0.051c0.783,0.18,1.709-0.006,2.506-0.006
			c0.766,0,1.547-0.08,2.293-0.08c0.377,0,0.757,0.056,1.146,0.056c0.451,0,0.904-0.101,1.359-0.021
			c0.752,0.137,1.551-0.06,2.297,0.057c0.398,0.061,0.755-0.043,1.15-0.031c0.434,0.014,0.877,0.092,1.295-0.039
			c0.388-0.121,0.74,0.131,1.146,0.004c0.344-0.102,0.787,0.092,1.15,0.074c0.846-0.026,1.671-0.096,2.51-0.096
			c0.754,0,1.529,0.104,2.299,0.104c0.383,0,0.762,0.023,1.143,0.023c0.455,0,0.881-0.213,1.355-0.127
			c0.355,0.063,0.812-0.111,1.143,0.023c0.416,0.171,0.733-0.056,1.145,0.045c0.734,0.182,1.686,0.051,2.443,0.026
			c0.768-0.022,1.543,0.024,2.302-0.026c0.829-0.056,1.667-0.089,2.507-0.089c0.376,0,0.761,0.091,1.15,0.091
			c0.393,0,0.771-0.062,1.151-0.062c0.8,0,1.728-0.154,2.515-0.013c0.381,0.066,0.768,0.047,1.151,0.07
			c0.364,0.021,0.81-0.125,1.154-0.023c0.753,0.222,1.655-0.116,2.453,0.06c0.751,0.162,1.595-0.229,2.303-0.008
			c0.332,0.108,0.81-0.058,1.153-0.07c0.464-0.021,0.912,0.063,1.371,0.063c0.764,0,1.545,0.012,2.309,0.012
			c0.391,0,0.771-0.122,1.163-0.122c0.315,0,0.819,0.328,0.591-0.305c-0.234-0.65,0.012-1.57-0.006-2.247
			c-0.021-0.842,0.008-1.652,0.008-2.493c0-0.75-0.004-1.521-0.004-2.281c0-0.829-0.09-1.669-0.02-2.485
			c0.062-0.752-0.082-1.519-0.035-2.273c0.051-0.818,0.029-1.611-0.018-2.423c-0.044-0.722,0.264-1.61,0.063-2.276
			c-0.107-0.357,0.067-0.762,0-1.137c-0.07-0.416,0.015-0.928,0.015-1.352c0-0.763-0.011-1.521-0.011-2.285
			c0-0.375,0.026-0.758,0.026-1.137c0-0.451-0.127-0.916-0.084-1.355c0.076-0.73,0.074-1.539,0.098-2.277
			c0.021-0.795,0.043-1.637,0.002-2.426c-0.088-1.593-0.04-3.186-0.04-4.777c0-0.766,0.008-1.518,0.008-2.278
			c0-0.383-0.049-0.763-0.049-1.146c0-0.449,0.206-0.883,0.065-1.35c-0.121-0.412,0.035-0.729,0.024-1.145
			c-0.005-0.391-0.086-0.752-0.106-1.14c-0.041-0.819,0.158-1.589,0.018-2.421c-0.057-0.351,0.005-0.797,0.09-1.137
			c0.088-0.34-0.021-0.787-0.033-1.136c-0.021-0.382-0.057-0.762,0.02-1.138c0.041-0.207-0.001-0.377-0.059-0.572
			c-0.084-0.293,0.09-0.501,0.09-0.781c0-0.759-0.037-1.525-0.037-2.286c0-0.38,0.018-0.759,0.018-1.14
			c0-0.208-0.119-0.36-0.119-0.57c0-0.285,0.174-0.479,0.133-0.781c-0.219-1.557,0.017-3.14-0.096-4.723
			c-0.023-0.376,0.059-0.77,0.088-1.143c0.033-0.385-0.084-0.76-0.082-1.148c0.006-0.838,0.045-1.668,0.045-2.503
			c0-0.755,0.06-1.542,0.06-2.286c0-0.374-0.058-0.757-0.058-1.146c0-0.449,0.06-0.914,0.035-1.357
			c-0.021-0.391-0.125-0.761-0.134-1.15c-0.003-0.402,0.147-0.752,0.131-1.146c-0.01-0.299,0.185-2.402-0.307-2.137
			c-0.617,0.336-1.569-0.219-2.248,0.002c-0.812,0.263-1.636-0.033-2.438-0.037c-0.391-0.002-0.755,0.123-1.146,0.148
			c-0.405,0.024-0.74-0.122-1.145-0.021c-0.354,0.087-0.773-0.088-1.145-0.074c-0.456,0.012-0.898,0.006-1.354,0.006
			c-0.762,0-1.529,0.018-2.285,0.018c-0.828,0-1.678,0.113-2.5,0.009c-0.746-0.091-1.539,0.117-2.285-0.015
			c-0.725-0.127-1.687-0.056-2.434-0.026c-1.605,0.065-3.175,0.041-4.781,0.041c-0.764,0-1.518,0.015-2.285,0.015
			c-0.834,0-1.668-0.102-2.498-0.072c-0.758,0.028-1.537,0.121-2.289,0.104c-0.37-0.012-0.78-0.085-1.146-0.028
			c-0.459,0.073-0.839-0.13-1.291-0.022c-0.75,0.178-1.537-0.041-2.291,0.016c-0.832,0.064-1.676-0.035-2.5-0.035
			c-0.76,0-1.529-0.018-2.289-0.018c-0.781,0-1.709,0.184-2.5,0.025c-0.697-0.14-1.576-0.047-2.285-0.004
			c-0.762,0.055-1.727-0.238-2.438,0.055c-0.348,0.146-0.75-0.113-1.136,0c-0.369,0.107-0.745-0.125-1.14-0.059
			c-0.375,0.062-0.764,0.025-1.138,0.083c-0.479,0.07-0.896-0.116-1.349-0.116c-0.768,0-1.52,0.058-2.273,0.058
			c-0.376,0-0.755-0.071-1.137-0.071c-0.439,0-0.928,0.172-1.348,0.091c-1.534-0.288-3.166,0.239-4.707-0.067
			c-0.608-0.119-1.674-0.035-2.278,0.094c-0.345,0.071-0.796-0.037-1.142-0.085c-0.435-0.061-0.914,0.056-1.353,0.056
			c-0.767,0-1.528-0.051-2.289-0.051c-0.384,0-0.766-0.024-1.146-0.024c-0.411,0-0.965,0.192-1.36,0.063
			c-0.429-0.139-0.735,0.145-1.144,0.031c-0.385-0.102-0.801,0.135-1.147-0.01c-0.785-0.326-1.635,0.208-2.438-0.061
			c-0.317-0.107-0.828-0.007-1.144,0.07c-0.376,0.096-0.743-0.139-1.144-0.086c-0.811,0.113-1.678,0.097-2.495,0.097
			c-0.762,0-1.527-0.071-2.283-0.071c-0.2,0-0.372,0.076-0.574,0.076c-0.207,0-0.356-0.131-0.568-0.131
			c-0.45,0-0.88,0.18-1.354,0.146c-1.567-0.117-3.14-0.043-4.721-0.078c-1.61-0.035-3.183-0.014-4.797-0.014
			c-0.778,0-1.527,0.092-2.296,0.092c-0.214,0-0.362-0.129-0.57-0.129c-0.206,0-0.371,0.1-0.575,0.1
			c-0.425,0-0.944,0.091-1.358,0.014c-0.357-0.068-0.812,0.113-1.143-0.021c-0.353-0.141-0.771-0.117-1.146-0.055
			c-0.79,0.131-1.639,0.059-2.437,0.062c-1.604,0.011-3.208-0.119-4.799-0.119c-3.179,0-6.37,0.188-9.539,0.014
			c-1.608-0.089-3.21,0.114-4.807,0.114c-1.593,0-3.217-0.195-4.805-0.115c-0.367,0.019-0.795-0.073-1.152,0.015
			c-0.403,0.101-0.762-0.104-1.147-0.005c-0.392,0.097-0.744,0.005-1.144-0.007c-0.446-0.016-0.847,0.129-1.289,0.062
			c-0.787-0.119-1.524,0.109-2.29,0.032c-0.835-0.081-1.669-0.01-2.507-0.01c-1.605,0-3.21-0.044-4.808-0.058
			c-0.742-0.006-1.575,0.219-2.305,0.085c-0.398-0.075-0.748,0.031-1.15,0.022c-0.444-0.006-0.865-0.15-1.3-0.023
			c-0.388,0.109-0.737-0.156-1.153-0.057c-0.357,0.082-0.782,0.021-1.15,0.04c-0.856,0.04-1.672-0.112-2.519-0.112
			c-0.768,0-1.529,0.029-2.304,0.029c-0.832,0-1.685,0.225-2.523,0.109c-0.714-0.102-1.598-0.246-2.311-0.072
			c-0.374,0.092-0.794,0.051-1.169-0.035c-0.58-0.134-0.362,0.69-0.3,0.97c0.148,0.673-0.081,1.562-0.022,2.276
			c0.032,0.389-0.095,0.744-0.05,1.139c0.043,0.451,0.031,0.902,0.031,1.354c0,0.771-0.046,1.496-0.046,2.279
			c0,0.383,0.083,0.762,0.083,1.139c0,0.467-0.102,0.894-0.104,1.348c-0.003,1.572,0.242,3.147-0.015,4.699
			c-0.109,0.664,0.003,1.603,0.081,2.275c0.093,0.781-0.042,1.689-0.042,2.491c0,0.772,0.101,1.513,0.101,2.282
			c0,0.851-0.125,1.633-0.069,2.49c0.047,0.76,0.067,1.52,0.008,2.28c-0.028,0.386,0.054,0.754,0.032,1.138
			c-0.018,0.446-0.176,0.857-0.054,1.289c0.16,0.569,0.119,1.719-0.047,2.284c-0.1,0.329,0.071,0.8,0.09,1.14
			c0.029,0.475-0.088,0.902-0.088,1.354c0,0.762,0.039,1.516,0.039,2.281c0,0.381-0.01,0.76-0.01,1.141
			c0,0.414,0.081,0.955,0.003,1.353c-0.079,0.388,0.181,0.797,0.049,1.144c-0.14,0.363-0.093,0.756-0.046,1.139
			c0.087,0.748,0.08,1.678,0.006,2.42c-0.038,0.406,0.117,0.732,0.006,1.137c-0.095,0.34-0.06,0.801,0.012,1.139
			c0.162,0.789,0.029,1.689,0.029,2.494c0,1.596,0.006,3.185-0.023,4.777c-0.055,3.188-0.041,6.328-0.041,9.516
			c0,0.687,0.111,1.396,0.038,2.074c-0.081,0.764,0.112,1.547,0.002,2.293c-0.106,0.703,0.128,1.422-0.034,2.146
			c-0.092,0.412,0.169,0.769,0.059,1.15C95.218,87.042,95.009,87.374,95.284,87.652C95.488,87.855,95.082,87.445,95.284,87.652"/>
	</g>
</g>
</svg>
