<?xml version="1.0" encoding="utf-8"?>
<!-- Generator: Adobe Illustrator 20.1.0, SVG Export Plug-In . SVG Version: 6.00 Build 0)  -->
<svg version="1.0" xmlns="http://www.w3.org/2000/svg" xmlns:xlink="http://www.w3.org/1999/xlink" x="0px" y="0px"
	 viewBox="0 0 737 259" style="enable-background:new 0 0 737 259;" xml:space="preserve">
<style type="text/css">
	.st0{fill:#010202;}
</style>
<g id="Calque_1">
</g>
<g id="LOGO">
	<g>
		<polygon class="st0" points="219,224.9 229.6,224.9 229.6,222.8 219,222.8 219,212.6 230.3,212.6 230.3,210.5 216.5,210.5 
			216.5,238.4 230.7,238.4 230.7,236.3 219,236.3 		"/>
		<polygon class="st0" points="263.8,224.4 257.6,210.5 255,210.5 262.5,227.2 262.5,238.4 265,238.4 265,227.2 272.6,210.5 
			269.9,210.5 		"/>
		<polygon class="st0" points="300.6,224.9 311.2,224.9 311.2,222.8 300.6,222.8 300.6,212.6 311.9,212.6 311.9,210.5 298.1,210.5 
			298.1,238.4 312.3,238.4 312.3,236.3 300.6,236.3 		"/>
		<polygon class="st0" points="357.1,235 357,235 352.3,210.5 349.4,210.5 344.6,235 344.5,235 339.6,210.5 337.1,210.5 343,238.4 
			346.2,238.4 350.8,213.9 350.9,213.9 355.5,238.4 358.6,238.4 364.5,210.5 362,210.5 		"/>
		<polygon class="st0" points="393.1,224.9 403.7,224.9 403.7,222.8 393.1,222.8 393.1,212.6 404.4,212.6 404.4,210.5 390.6,210.5 
			390.6,238.4 404.8,238.4 404.8,236.3 393.1,236.3 		"/>
		<path class="st0" d="M437.4,210.5l-8.2,27.9h2.7l2.3-8.1h9.8l2.3,8.1h2.7l-8.2-27.9H437.4z M434.6,228.2l4.3-15.7h0.1l4.3,15.7
			H434.6z"/>
		<path class="st0" d="M489.6,231.2c-0.1-4.3-1.3-6.3-4.8-6.6v-0.1c3.7-0.7,5-3.7,5-7.1c0-4.3-2.6-7-7.2-7h-8.3v27.9h2.5v-12.7h4.7
			c4.5,0,5.4,1.6,5.6,6.5l0.1,2.3c0,1.5,0.2,2.9,0.7,3.9h2.9c-1-1.1-1.1-2.6-1.2-4.1L489.6,231.2z M481.1,223.5h-4.3v-10.9h4.6
			c4.5,0,6,2.1,6,5.5C487.4,221.7,485.1,223.5,481.1,223.5z"/>
		<path class="st0" d="M717.7,237.3c-2.5-7.6-0.6-18.1,0.7-27.1c2.8-18.7,5.7-32.8,7-53.7c0.4-6.1,2.9-24.9-3.2-25.8
			c-2.2-0.3-5.4,3.1-7.3,4.8c-6.9,6.2-13,13.5-19.2,17.3c-2-8.7,2.8-22.7-3.2-27.9c-13.8,7.2-20.4,23.7-30.7,32.8
			c-0.5-16.9,5.5-33.3,3.6-48.8c-10.4,4.1-13.2,15.7-18.3,24.6c-2.7,4.8-7.3,8.2-11.1,12c-4,4-7.5,9.8-13.7,10.4
			c-0.3-13.6,4.6-24.5,7.9-35.7c3.3-11.2,5.4-23.1,11-33.1c12.8-3.8,31.3,1.4,45.5,0.1c5.5-0.5,13-2,12.4-9.5
			c-3.7-3.9-12.9-2.2-19.4-3.3c1-3.3,5.7-1.9,6.8-6.1c1-3.8-1-12.1-3.5-12.9c-4.4-1.3-13.1,7.7-12.4,13.4c0.4,3.2,3.5,1.8,3,5.1
			c-9-1-20.3,0.4-29.2-0.7c3.4-10.3,8.4-21.3,11-31c-6.1,4.1-11.1,8.4-14.5,15.1c-3.5,6.9-4.2,15.4-8,22c-2,3.5-5.9,5.1-6.8,9.1
			c0,0.7,3.4-1,3.4,0.8c-3.4,18.4-11,36.5-15.5,53.8c-1.4,5.4-1.6,13.2-8.1,15.1c-2.9-10.2,3.6-26.5,0.2-37.4
			c-6.5,1.8-9.9,7.6-14.1,14.7c-4.2,4.5-7.8,10-12.8,12.5c0.8-10.4,2.6-25.6-4.5-30.5c-7.2,5.4-12.1,13.1-17.5,20.7
			c-6.7,9.6-12.5,21.5-23,25.9c-0.3-3,0.5-4.9,0.4-7.7c8.6-7.5,13.6-17.1,16.6-31c0.7-3.2,2.6-11.6-0.5-13.3c-3.1-1.7-7.9,3-9.8,5.2
			c-8.1,9.2-9.3,23-12.7,32.8c-2.7,2.6-5.2,4.8-9,7.4c-2.6,1.8-7.8,6.2-11.1,5.7c-3.6-0.5-7.2-11.2-6.1-15.9
			c0.5-2.1,5.7-6.9,8.1-9.5c14.6-16.3,23.6-35.6,28.7-65.1c1.7-9.7,5.1-20.7,2.4-30.5c-9,2.8-14,11.8-19.2,19
			c-5.4,7.5-10.5,15.6-14.5,24.1c-8.7,21.6-15.8,41.8-17.5,63.3c-3.6,4.8-9.3,10.8-18.1,13.8c-7.7-8.9-3.1-26.5-0.6-37.6
			c1.1-5.2,4.6-14.8,1.5-17.8c-2.7-2.6-8.4,0.2-11.2,1.3c-12.3,5-17.4,16.1-24.9,22.8c-3.3-11.1,1.4-21.3-3.9-26.3
			c-8.7,3-16.4,7.1-26.1,9.2c-3.2,13.4-2.3,30.8-15.6,35.8c-2.4-11.2,1.3-22.8,3.2-34c3.8-22.8,8.7-46.4,12.4-71.4
			c1.8-11.1,5.3-25.7-1.1-34.4c-0.1,0-0.3,0-0.4,0c-13.3,3.6-19.1,21.6-25.1,34.5c-13.9,31.4-32.5,67.4-49.3,89.7
			c-1.4-11.8-2-20.7-2.8-29c13.2-16.6,28.8-38.6,22.9-69.3c-10.7,1-21.7,5.5-31.7,10.1c-18.4,8.4-36.2,18.6-32.8,45.3
			c4.4-1.1,7.7-3.2,11.1-5.2c1.6-13.5,12.5-20.1,23.5-22.9c0.1,1.3-0.2,4.9-0.1,8.2c-0.3,6.7,0.8,16.9,0.7,22.8
			c-0.6,3-7.3,9.1-10.7,12.5c-4,4-8.3,8-11.5,11.7c-5,5.7-12,12.6-16.2,18.6c-1.8,2.5-2.5,5.6-4.2,7.8c-2.6,3.2-9.7,9.2-14.6,11.7
			c-7.9,4-25,10.8-23.7-4.1c4.8-8.8,20.9-21.7,12.2-34c-13.4,3.7-16,18-19.6,31.5c-3.6,2.4-7.6,9.3-13.4,9.5
			c-2.9-6.2-1.1-17.6-1.9-26.6c-0.3-3-1.3-9.2-4.4-9.9c-5.5-1.1-8.9,8.3-11.1,11.7c-3.4,5.4-6.1,9.5-9.8,13.4
			c0.3-8.8,1.9-26.4-5.3-27.5c-4.7-0.7-9.3,7.4-12.4,11.2c-5.7,7.1-11.7,12.2-14.9,19.4c-1-11.7,3.2-27.8-3.2-34.8
			c-7,1.8-10.4,8.8-14.5,13.8c-4.3,5.3-8.7,10.6-12.4,15.1c0.6-7.1,1.7-11.9,2.9-19.8c0.6-4.4,3.5-17.5-1.8-18.5
			c-4.2-0.8-10.3,9.4-12.8,12.5c-8.2,10.6-14.6,19.6-21.3,29.8c-3.5,5.3-6.5,10.3-12.4,12.2c2.8-22.6,10.4-40,18.5-59.9
			c3.5-8.5,7.9-16.3,11-28.8c2.2-9,3.1-29.9-5.8-30.9c-3.5-0.4-5.9,3.5-10.7,4.4c-1.9,0.3-3.8-0.3-5.6,0
			c-8.8,1.9-19.1,16.3-26.5,23.8C56.8,78.9,48.6,88.1,41.6,97c-12.6,15.7-18.9,29.7-26.3,49.1c-2.4,6.3-5.3,13-5.9,19.4
			c-0.4,4.7,0.1,10.8,1.4,12.9c7.4,11.8,23.6-6,30-10.5c10.7-7.6,22-15.5,30.3-24.7c4.6-5,7.4-11.1,12.4-14.7
			c-2.1,7.6-4.2,15.6-6.3,23.7c-2,6.6-5.1,13.8-2.4,22.1c11.9-2.7,18.8-12.2,25.2-20.1c6.6-9.5,12.4-20.1,20.9-27.6
			c-0.1,17.2-5.6,31.3-5.3,47.6c8.2-5.1,13.1-13.4,18.3-21.5c3.9-6.2,6.1-14.5,12.8-18.1c3.2,13.3-1.1,26.7-2.3,39.7
			c8.4-3.1,12.6-10.8,17.5-17.4c5.2-6.9,9.8-14.4,17.1-19c4.8,10-1.7,25.4,0.2,36.2c14-5,16.5-22.8,25.6-30.3
			c1.9,9.4-2.1,24.9,4.1,30.3c10.4,0.5,13.5-6,20.6-13.3c0.1,9.1,3.4,14.4,12.5,13.2c5.9-0.7,13.5-5,19.7-8.3
			c7-3.7,13.2-9.6,16.8-12.6c-1,11.8-0.1,24.8,8.3,28.3c12,0.2,18.7-6.6,25.3-12.2c6.1-5.2,11.8-9.5,17.5-15.9
			c2.7,10.8,5.7,21.7,12,29.1c9.4-3,13.3-17.2,10.1-28.4c-3.3,1.9-3.4,9-8.5,8.6c-0.8-0.1-1.8-0.7-2.8-1.7
			c-3.6-4.2-5.5-8.4-6.8-13.5c1-1.6,3.1-4.4,5.8-7.7c1-1.2,1.9-2.3,2.6-3.4c14.4-21.3,25.6-45.1,36.5-67.7
			c6.6-15.1,10.5-30.5,22.5-37.7c-1.5,35.3-10.6,68.1-16.6,98.9c-2.7,14.2-8.1,36,1.6,44.2c14.6-8.3,19.7-26.1,23.3-43.6
			c6.7-2.2,12-5.8,19.3-7.4c1.1,3.6-1.9,8.4-2.8,11.4c-3.3,10.2-7.3,28.5-3.1,39.6c15.2-1.5,22.1-16,35.2-22.4
			c-0.3,8.7,0.8,16.9,3.8,22.3c13.2-0.3,19.5-10.8,29.8-17.1c2,7.9,4.4,16.6,12.1,17.4c10.9,1.1,16.7-11.8,24.8-14.9
			c-0.7,5.9-0.8,12,0.5,14.4c9.9-1.8,16.5-8.9,21.8-15.6c5.6-7.1,9.3-16.1,16.2-20.7c2.4,13.1-5.4,24.1-2.3,36.5
			c7.4-2.9,10.4-11.2,15.4-16.9c5.1-5.8,10.5-11.2,15.4-18.5c0.2,10.7-4.5,28.9,0.7,35.1c6.6,1.5,10.1-3.7,13.7-6.5
			c3.9,10.6,10.6,2.4,15.5-3c8.9-9.4,19.8-20.6,26.9-27.2c-0.3,13.1-3.7,25.9-1.5,37.2c14.1-7.7,21.4-22.1,33.7-31.6
			c0.4,11.4-4.3,22.1-2.8,31.8c12.5-6,17.8-19.2,29.9-25.5c2.4,24.9-1.3,51-3.8,73.9c-1,9.6-3.4,20.9,0.6,26.6
			c10.3-0.2,16-4.9,18.8-12.6C723.7,235.4,721.2,237.9,717.7,237.3z M545.5,123c2.8,10-4.2,20.1-9.3,23.7
			C538.7,138.1,541,129.4,545.5,123z M528.3,63.4c0.4-0.1,0.4,0.2,0.4,0.4c-0.4,14.7-4.4,32.3-8.6,43.9
			c-4.1,11.3-8.8,22.6-17.8,29.3C501.7,105.1,518.9,85.5,528.3,63.4z M251.5,125.7c-2,7.4-4.8,14-10.2,18.1
			C243.5,136.7,245.1,128.8,251.5,125.7z M34.4,113.8C45.4,97.6,58.7,82,72.3,68C58,88.9,37.8,107.7,25.5,131.9
			C26.3,125.1,30.7,119.2,34.4,113.8z M74.8,126.9c-10.8,12.1-18,20.3-32.4,30.3c-5.1,3.5-14.4,12.2-20.5,10.4
			c-4.3-1.2-5.3-11.8-3.1-18c2.8-8.2,11.6-17.6,17.4-25C48.4,108.9,62.3,93,73.6,77.5C79.5,69.4,88,59.4,98,57.1
			c4.1,2.7,9,10.2,7,18.4c-0.9,3.7-5.8,4.7-7.7,7.8c-4.4,7.1-3.9,19-7.6,27.1C87.2,116.1,80.1,120.9,74.8,126.9z M325,61.7
			c4.7-3.8,12.3-6.9,18.9-7.4c3.1,4.8-2.8,14.6-6.3,19.8c-3.7,5.6-8.3,9.9-11.3,14.2C325.4,80.8,324.3,70.5,325,61.7z M309.7,154.9
			c-7.2,5.7-18.1,15.9-25.7,4.6c10.9-18,24.5-33.3,38.9-47.9c0.4,4.7,2.2,17.7,3.5,27.8C323.2,143.8,314.5,151.1,309.7,154.9z
			 M459.5,130.6c-1.1,5.6-1.3,11.4-3.9,14.6c-2.9,3.6-8,5.9-11.6,8.6c-4,3-7.8,6.7-12.9,7.3c0.1-8.3,2-16.5,6.7-22.6
			c1.3-1.7,3.8-2.7,5.2-4.5c1-1.2,1.1-2.9,2-4c1.3-1.7,12.3-12.8,15.3-12.2C465.1,118.6,460.3,126.8,459.5,130.6z"/>
	</g>
</g>
</svg>
